<?xml version="1.0" encoding="UTF-8"?>
<!DOCTYPE svg PUBLIC "-//W3C//DTD SVG 1.1//EN" "http://www.w3.org/Graphics/SVG/1.1/DTD/svg11.dtd">
<!-- Creator: CorelDRAW 2018 (64-Bit) -->
<svg xmlns="http://www.w3.org/2000/svg" xml:space="preserve" width="2550px" height="3300px" version="1.1" style="shape-rendering:geometricPrecision; text-rendering:geometricPrecision; image-rendering:optimizeQuality; fill-rule:evenodd; clip-rule:evenodd"
viewBox="0 0 2550 3300"
 xmlns:xlink="http://www.w3.org/1999/xlink">
 <defs>
  <style type="text/css">
   <![CDATA[
    .str0 {stroke:#FEFEFE;stroke-width:2.36;stroke-miterlimit:2.61313}
    .str42 {stroke:black;stroke-width:1.98;stroke-linecap:round;stroke-linejoin:round;stroke-miterlimit:2.61313}
    .str41 {stroke:black;stroke-width:1.98;stroke-linecap:round;stroke-linejoin:round;stroke-miterlimit:2.61313}
    .str38 {stroke:black;stroke-width:1.98;stroke-linecap:round;stroke-linejoin:round;stroke-miterlimit:2.61313}
    .str33 {stroke:black;stroke-width:1.98;stroke-linecap:round;stroke-linejoin:round;stroke-miterlimit:2.61313}
    .str34 {stroke:black;stroke-width:1.98;stroke-linecap:round;stroke-linejoin:round;stroke-miterlimit:2.61313}
    .str14 {stroke:black;stroke-width:1.98;stroke-linecap:round;stroke-linejoin:round;stroke-miterlimit:2.61313}
    .str2 {stroke:black;stroke-width:1.98;stroke-linecap:round;stroke-linejoin:round;stroke-miterlimit:2.61313}
    .str10 {stroke:black;stroke-width:1.98;stroke-linecap:round;stroke-linejoin:round;stroke-miterlimit:2.61313}
    .str7 {stroke:black;stroke-width:1.98;stroke-linecap:round;stroke-linejoin:round;stroke-miterlimit:2.61313}
    .str11 {stroke:black;stroke-width:1.98;stroke-linecap:round;stroke-linejoin:round;stroke-miterlimit:2.61313}
    .str8 {stroke:black;stroke-width:1.98;stroke-linecap:round;stroke-linejoin:round;stroke-miterlimit:2.61313}
    .str5 {stroke:black;stroke-width:1.98;stroke-linecap:round;stroke-linejoin:round;stroke-miterlimit:2.61313}
    .str9 {stroke:black;stroke-width:1.98;stroke-linecap:round;stroke-linejoin:round;stroke-miterlimit:2.61313}
    .str6 {stroke:black;stroke-width:1.98;stroke-linecap:round;stroke-linejoin:round;stroke-miterlimit:2.61313}
    .str3 {stroke:black;stroke-width:1.98;stroke-linecap:round;stroke-linejoin:round;stroke-miterlimit:2.61313}
    .str4 {stroke:black;stroke-width:1.98;stroke-linecap:round;stroke-linejoin:round;stroke-miterlimit:2.61313}
    .str37 {stroke:black;stroke-width:1.98;stroke-linecap:round;stroke-linejoin:round;stroke-miterlimit:2.61313}
    .str39 {stroke:black;stroke-width:1.98;stroke-linecap:round;stroke-linejoin:round;stroke-miterlimit:2.61313}
    .str40 {stroke:black;stroke-width:1.98;stroke-linecap:round;stroke-linejoin:round;stroke-miterlimit:2.61313}
    .str13 {stroke:black;stroke-width:1.98;stroke-linecap:round;stroke-linejoin:round;stroke-miterlimit:2.61313}
    .str35 {stroke:black;stroke-width:1.98;stroke-linecap:round;stroke-linejoin:round;stroke-miterlimit:2.61313}
    .str21 {stroke:black;stroke-width:1.98;stroke-linecap:round;stroke-linejoin:round;stroke-miterlimit:2.61313}
    .str20 {stroke:black;stroke-width:1.98;stroke-linecap:round;stroke-linejoin:round;stroke-miterlimit:2.61313}
    .str17 {stroke:black;stroke-width:1.98;stroke-linecap:round;stroke-linejoin:round;stroke-miterlimit:2.61313}
    .str12 {stroke:black;stroke-width:1.98;stroke-linecap:round;stroke-linejoin:round;stroke-miterlimit:2.61313}
    .str36 {stroke:black;stroke-width:1.98;stroke-linecap:round;stroke-linejoin:round;stroke-miterlimit:2.61313}
    .str43 {stroke:black;stroke-width:1.98;stroke-linecap:round;stroke-linejoin:round;stroke-miterlimit:2.61313}
    .str18 {stroke:black;stroke-width:1.98;stroke-linecap:round;stroke-linejoin:round;stroke-miterlimit:2.61313}
    .str23 {stroke:black;stroke-width:1.98;stroke-linecap:round;stroke-linejoin:round;stroke-miterlimit:2.61313}
    .str31 {stroke:black;stroke-width:1.98;stroke-linecap:round;stroke-linejoin:round;stroke-miterlimit:2.61313}
    .str28 {stroke:black;stroke-width:1.98;stroke-linecap:round;stroke-linejoin:round;stroke-miterlimit:2.61313}
    .str32 {stroke:black;stroke-width:1.98;stroke-linecap:round;stroke-linejoin:round;stroke-miterlimit:2.61313}
    .str29 {stroke:black;stroke-width:1.98;stroke-linecap:round;stroke-linejoin:round;stroke-miterlimit:2.61313}
    .str26 {stroke:black;stroke-width:1.98;stroke-linecap:round;stroke-linejoin:round;stroke-miterlimit:2.61313}
    .str30 {stroke:black;stroke-width:1.98;stroke-linecap:round;stroke-linejoin:round;stroke-miterlimit:2.61313}
    .str27 {stroke:black;stroke-width:1.98;stroke-linecap:round;stroke-linejoin:round;stroke-miterlimit:2.61313}
    .str24 {stroke:black;stroke-width:1.98;stroke-linecap:round;stroke-linejoin:round;stroke-miterlimit:2.61313}
    .str25 {stroke:black;stroke-width:1.98;stroke-linecap:round;stroke-linejoin:round;stroke-miterlimit:2.61313}
    .str15 {stroke:black;stroke-width:1.98;stroke-linecap:round;stroke-linejoin:round;stroke-miterlimit:2.61313}
    .str22 {stroke:black;stroke-width:1.98;stroke-linecap:round;stroke-linejoin:round;stroke-miterlimit:2.61313}
    .str19 {stroke:black;stroke-width:1.98;stroke-linecap:round;stroke-linejoin:round;stroke-miterlimit:2.61313}
    .str16 {stroke:black;stroke-width:1.98;stroke-linecap:round;stroke-linejoin:round;stroke-miterlimit:2.61313}
    .str1 {stroke:black;stroke-width:2;stroke-linecap:round;stroke-linejoin:round;stroke-miterlimit:2.61313}
    .fil13 {fill:none}
    .fil10 {fill:none;fill-rule:nonzero}
    .fil0 {fill:#FEFEFE}
    .fil1 {fill:#D2D3D5}
    .fil6 {fill:#D2AE6D}
    .fil7 {fill:#A46080}
    .fil12 {fill:#EC268F}
    .fil3 {fill:#ED2F59}
    .fil18 {fill:#ED3237}
    .fil16 {fill:#A8518A}
    .fil5 {fill:#A8CF45}
    .fil17 {fill:#8682AB}
    .fil2 {fill:#51A8B1}
    .fil4 {fill:#52658C}
    .fil19 {fill:#5E4F3E}
    .fil9 {fill:#71A72B}
    .fil8 {fill:#947A5D}
    .fil14 {fill:#FEFEFE;fill-rule:nonzero}
    .fil11 {fill:black;fill-rule:nonzero}
    .fil15 {fill:#78644E;fill-rule:nonzero}
   ]]>
  </style>
 </defs>
 <g id="Layer_x0020_1">
  <metadata id="CorelCorpID_0Corel-Layer"/>
  <polygon class="fil0 str0" points="1020.41,722.59 1136.27,722.59 1136.27,300.27 1020.41,300.27 "/>
  <polygon class="fil0 str0" points="1071.27,636.27 1136.27,636.27 1136.27,517.27 1071.27,517.27 "/>
  <polygon class="fil1 str0" points="1131.68,1073.49 1290.89,1073.49 1290.89,1068.26 2152.21,1068.26 2152.21,779.28 1179.03,779.28 1179.03,191.09 1138.77,191.09 1138.77,300.27 1136.27,300.27 1136.27,722.59 1131.68,722.59 1131.68,779.28 "/>
  <polygon class="colins fil2 str0" points="706.21,1076.06 706.21,1200.95 706.21,1361.58 379.41,1361.58 379.41,1076.06 "/>
  <polygon class="koton fil2 str0" points="706.21,1361.58 706.21,2019.01 819.09,2143.08 819.91,2143.08 819.91,2462.08 749.41,2462.08 378.91,2462.08 378.91,2165.55 378.91,2143.08 379.41,2143.08 379.41,1361.58 "/>
  <polygon class="chuchvara2 fil3 str0" points="378.91,2719.58 378.91,2773.81 378.91,2810.08 378.91,2816.08 378.91,3004.78 594.39,3004.78 594.39,3070.16 808.41,3070.16 808.41,3004.78 917.91,3004.78 917.91,2816.08 1027.91,2816.08 1027.91,2719.58 917.91,2719.58 850.38,2719.58 815.91,2719.58 815.91,2550.88 749.41,2550.88 378.91,2550.88 "/>
  <polygon class="chuchvara2 fil3 str0" points="717.58,2550.88 378.91,2550.88 378.91,2462.08 717.58,2462.08 "/>
  <polygon class="flo fil4 str0" points="2152.21,1068.26 2152.21,1185.76 2152.21,1185.99 2152.21,1190.08 2152.21,1194.21 2152.21,1198.4 2152.21,1202.64 2152.21,1211.38 2152.21,1215.89 2152.21,1220.53 2152.21,1225.29 2152.21,1230.21 2152.21,1235.28 2152.21,1240.52 2152.21,1245.96 2152.21,1251.59 2152.21,1257.44 2152.21,1263.52 2152.21,1269.84 2152.21,1271.38 2152.21,1322.06 2152.21,1366.37 2152.21,1417.3 2152.21,1417.93 2152.21,1418.09 2152.21,1418.54 2152.21,1419.12 2152.21,1419.64 2152.21,1419.67 2152.21,1420.21 2152.21,1420.72 2152.21,1421.21 2152.21,1421.26 2152.21,1421.68 2152.21,1422.14 2152.21,1422.58 2152.21,1422.95 2152.21,1423 2152.21,1423.41 2152.21,1423.8 2152.21,1424.18 2152.21,1424.55 2152.21,1424.71 2152.21,1424.9 2152.21,1425.25 2152.21,1425.59 2152.21,1425.92 2152.21,1426.24 2152.21,1426.54 2152.21,1426.56 2152.21,1426.87 2152.21,1427.18 2152.21,1427.49 2152.21,1427.79 2152.21,1428.1 2152.21,1428.4 2152.21,1428.45 2152.21,1428.71 2152.21,1429.02 2152.21,1429.33 2152.21,1429.65 2152.21,1429.97 2152.21,1430.3 2152.21,1430.44 2152.21,1430.64 2152.21,1430.98 2152.21,1431.34 2152.21,1431.71 2152.21,1432.09 2152.21,1432.48 2152.21,1432.5 2152.21,1432.88 2152.21,1433.3 2152.21,1433.74 2152.21,1434.19 2152.21,1434.66 2152.21,1434.66 2152.21,1435.16 2152.21,1435.67 2152.21,1436.2 2152.21,1436.75 2152.21,1436.9 2152.21,1437.33 2152.21,1437.93 2152.21,1438.56 2152.21,1439.21 2152.21,1439.23 2152.21,1439.89 2152.21,1440.6 2152.21,1441.34 2152.21,1441.65 2152.21,1442.11 2152.21,1442.91 2152.21,1443.75 2152.21,1444.16 2152.21,1444.61 2152.21,1445.52 2152.21,1446.45 2152.21,1446.78 2152.21,1447.43 2152.21,1448.44 2152.21,1449.49 2152.21,1501.58 1290.89,1501.58 1229.33,1501.58 1229.33,1379.08 1073.4,1379.08 974.41,1379.08 974.41,1204.08 1073.4,1204.08 1073.4,1185.76 1239.02,1185.76 1239.02,1113.88 1239.02,1073.49 1290.89,1073.49 1290.89,1068.26 "/>
  <polygon class="fil1 str0" points="1290.89,1068.26 1290.89,1058.07 1290.89,892.02 2152.21,892.02 2152.21,1068.26 "/>
  <polygon class="detskii_mir fil5 str0" points="919.91,1608.58 817.81,1608.58 817.81,1501.58 806.41,1501.58 806.41,1608.58 806.41,1617.43 806.41,1973.62 919.91,2098.38 919.91,2366.08 1060.3,2481.31 1060.3,2579.47 1229.33,2579.47 1229.33,2366.08 1229.33,1973.62 1229.33,1608.58 1229.33,1501.58 1056.41,1501.58 919.91,1501.58 "/>
  <polygon class="fil1 str0" points="1060.3,3004.78 1285.28,3004.78 1346.85,3004.78 1346.85,2997 2128.76,2997 2152.21,2997 2152.21,2816.08 2152.21,1502.53 1795.84,1502.53 1795.84,1501.58 1229.33,1501.58 1229.33,2579.47 1194.98,2579.47 1194.98,2748.52 1060.3,2748.52 1060.3,2868.98 1060.3,2868.98 "/>
  <polygon class="travelers_coffee fil3 str0" points="804.97,1074.96 937.07,1074.96 958.43,1074.96 958.43,1177.84 937.07,1177.84 937.07,1198.67 804.97,1198.67 804.97,1177.84 "/>
  <polygon class="anawa_kids fil6" points="773.53,1251.54 840.72,1251.54 840.72,1218.21 773.53,1218.21 "/>
  <polygon class="lego_qala fil7 str0" points="807.13,1380.45 877.7,1380.45 877.7,1294.51 807.13,1294.51 "/>
  <polygon class="fil8 str0" points="1194.98,2681.17 1060.3,2681.17 1060.3,2579.47 1194.98,2579.47 "/>
  <polygon class="fil1 str0" points="917.91,3004.78 1060.3,3004.78 1060.3,2816.08 1060.3,2719.58 1027.91,2719.58 1027.91,2816.08 917.91,2816.08 "/>
  <polygon class="fil1 str0" points="1073.4,1185.76 1239.02,1185.76 1239.02,1073.49 1131.68,1073.49 1131.68,1080.58 1073.4,1080.58 "/>
  <polygon class="fil1 str0" points="958.43,1204.08 1073.4,1204.08 1073.4,1080.58 1020.51,1080.58 1020.01,1074.96 958.43,1074.96 "/>
  <polygon class="toilet_m fil9 str0" points="1194.98,2681.17 1127.64,2681.17 1127.64,2748.52 1194.98,2748.52 "/>
  <polygon class="toilet_m fil9 str0" points="1060.3,2681.17 1127.64,2681.17 1127.64,2748.52 1060.3,2748.52 "/>
  <polygon class="wardrobe fil9 str0" points="1025.77,1136.74 958.43,1136.74 958.43,1204.08 1025.77,1204.08 "/>
  <polyline class="fil10 str1" points="844.31,1533.11 844.31,1580.61 867.31,1580.61 "/>
  <line class="fil10 str1" x1="844.31" y1="1580.61" x2="817.81" y2= "1580.61" />
  <line class="fil10 str1" x1="844.31" y1="1575.61" x2="817.81" y2= "1575.61" />
  <line class="fil10 str1" x1="844.31" y1="1570.11" x2="817.81" y2= "1570.11" />
  <line class="fil10 str1" x1="844.31" y1="1564.61" x2="817.81" y2= "1564.61" />
  <line class="fil10 str1" x1="844.31" y1="1559.61" x2="817.81" y2= "1559.61" />
  <line class="fil10 str1" x1="844.31" y1="1554.11" x2="817.81" y2= "1554.11" />
  <line class="fil10 str1" x1="844.31" y1="1548.61" x2="817.81" y2= "1548.61" />
  <line class="fil10 str1" x1="844.31" y1="1543.61" x2="817.81" y2= "1543.61" />
  <line class="fil10 str1" x1="844.31" y1="1538.11" x2="817.81" y2= "1538.11" />
  <line class="fil10 str1" x1="831.31" y1="1533.11" x2="831.31" y2= "1580.61" />
  <polyline class="fil10 str1" points="824.31,1575.61 831.31,1580.61 837.81,1575.61 "/>
  <line class="fil10 str1" x1="844.31" y1="1533.11" x2="817.81" y2= "1533.11" />
  <polyline class="fil10 str1" points="843.31,1532.11 843.31,1581.61 868.31,1581.61 "/>
  <line class="fil10 str1" x1="888.81" y1="1602.11" x2="888.81" y2= "1607.61" />
  <line class="fil10 str1" x1="883.31" y1="1596.61" x2="883.31" y2= "1607.61" />
  <line class="fil10 str1" x1="878.31" y1="1591.61" x2="878.31" y2= "1607.61" />
  <line class="fil10 str1" x1="872.81" y1="1586.11" x2="872.81" y2= "1607.61" />
  <line class="fil10 str1" x1="867.31" y1="1580.61" x2="867.31" y2= "1607.61" />
  <line class="fil10 str1" x1="862.31" y1="1580.61" x2="862.31" y2= "1607.61" />
  <line class="fil10 str1" x1="856.81" y1="1580.61" x2="856.81" y2= "1607.61" />
  <line class="fil10 str1" x1="851.31" y1="1580.61" x2="851.31" y2= "1607.61" />
  <line class="fil10 str1" x1="846.31" y1="1580.61" x2="846.31" y2= "1607.61" />
  <polyline class="fil10 str1" points="846.31,1594.11 877.81,1594.11 872.81,1589.11 "/>
  <polyline class="fil10 str1" points="867.31,1580.61 878.31,1591.61 879.81,1591.11 877.81,1595.11 880.31,1593.61 894.31,1607.61 "/>
  <line class="fil10 str1" x1="872.81" y1="1599.11" x2="877.81" y2= "1594.11" />
  <path class="fil11" d="M780.32 2545.12l-7.24 0 -2.57 0c-0.56,0 -1,-0.45 -1,-1l0 -4.5 -32.79 0 -0.03 0c-0.55,0 -1,-0.45 -1,-1l0 -0.02 0 -59.96 0 -0.02c0,-0.56 0.45,-1 1,-1l0.03 0 32.79 0 0 -4.5c0,-0.55 0.44,-1 1,-1l44.91 0 27.26 0 8.1 0c-12.4,14.89 -23.34,27.97 -34.34,40.89 -9.18,10.77 -18.19,21.2 -27.8,32.11l-8.32 0zm15.8 -28.5l0.89 1.07 0 -1.07 -0.89 0zm2.89 3.5l1.54 1.87 3.46 -4.01 0 -1.36 -5 0 0 3.5zm-2 0.71l-3.47 -4.21 -1.53 0 0 6.5 5 0 0 -2.29zm-35.5 -33.06l-3.8 4.35 3.8 0 0 -4.35zm-3.89 6.35l3.89 4.72 0 -4.72 -3.89 0zm2.77 6.5l-3.88 -4.72 0 4.72 3.88 0zm-3.88 -10.16l3.8 -4.34 -3.8 0 0 4.34zm-18.32 -9.84l0 8.88 0 16.12 9.95 0 0 -0.01 -0.01 -0.01 0 -0.01 -0.01 0 -0.03 -0.08 -0.01 -0.01 -0.01 -0.04 0 0 -0.02 -0.03 0 -0.02 0 0 0 -0.01 -0.01 -0.01 0 -0.01 0 -0.01 0 -0.01 -0.01 -0.03 0 -0.01 0 0 -0.01 -0.02 0 -0.01 0 -0.01 0 -0.01 0 0 -0.01 -0.02 0 -0.01 0 0 0 -0.02 0 -0.02 0 -0.01 0 -0.01 0 -0.01 0 0 0 -0.02 0 -0.01 0 -0.01 0 -0.01 0 -0.02 0 -0.01 0 -1.44 0 -0.02 0 -0.01c0,-0.55 0.45,-1 1,-1l0.02 0 4.48 0 0 -1c0,-0.55 0.44,-1 1,-1l0 -7.48 0 -0.02 0 -0.03 0 -6.97c-0.56,0 -1,-0.45 -1,-1l0 -1 -4.48 0 -0.02 0c-0.55,0 -0.99,-0.44 -1,-0.98l0 -0.02 0 -0.02 0 -0.01 0 -1.47 0 -0.5 0 -0.5 -7.76 0 -2.06 0zm0 27l0 2 16.29 0 56.68 0 0.54 -0.64 1.16 -1.36 -58.35 0 -0.03 0 -16.29 0zm0 4l0 13.97 0 11.03 9.82 0 0.16 0c-0.01,-0.02 -0.07,-0.04 -0.16,-0.05l0 -0.82 0 0 0 -0.13 0 -0.98 0 -0.02 0 -0.03c0.01,-0.54 0.45,-0.97 1,-0.97l0.02 0 4.48 0 0 -1.5c0,-0.55 0.44,-1 1,-1l0 -6.98 0 -0.02 0 -0.03 0 -7.47c-0.56,0 -1,-0.45 -1,-1l0 -0.29 -4.5 0c-0.55,0 -1,-0.61 -1,-1.36 0,-0.07 0,-0.14 0.01,-0.2 -0.01,-0.05 -0.01,-0.1 -0.01,-0.15l0 -1.47 0 -0.02 0 -0.01 0 -0.02 0 -0.01 0 -0.01 0 -0.01 0 0 0 -0.02 0 -0.01 0 -0.01 0 -0.01 0 -0.02 0 -0.01 0 -0.01 0.01 -0.01 0 -0.01 0 -0.01 0 -0.01 0 -0.01 0.01 -0.01 0 0 0 -0.02 0.01 -0.03 0 0 0 -0.02 0 -0.01 0.01 0 0 -0.02 0 0 0 -0.01 0.02 -0.03 0 -0.01 0.01 -0.04 0.01 0 0.03 -0.09 0.01 0 0 -0.01 0.01 -0.01 0 0 -9.95 0zm86.09 -17.5l-3.77 0 0 4.47 3.77 -4.47zm-5.77 0l-5.5 0 0 6.5 5.5 0 0 -6.5zm-7.5 0l-5 0 0 6.5 5 0 0 -6.5zm-7 0l-5 0 0 6.5 5 0 0 -6.5zm-7 0l-5 0 0 6.5 5 0 0 -6.5zm-7 0l-5 0 0 6.5 5 0 0 -6.5zm-7 0l-5.5 0 0 6.5 5.5 0 0 -6.5zm-7.5 0l-5 0 0 6.5 5 0 0 -6.5zm-7 0l-5 0 0 6.5 5 0 0 -6.5zm-5 -2l5 0 0 -6 -5 0 0 6zm7 0l5 0 0 -6 -5 0 0 6zm7 0l5.5 0 0 -6 -5.5 0 0 6zm7.5 0l5 0 0 -6 -5 0 0 6zm7 0l5 0 0 -6 -5 0 0 6zm7 0l5 0 0 -6 -5 0 0 6zm7 0l5 0 0 -6 -5 0 0 6zm7 0l5.5 0 0 -6 -5.5 0 0 6zm7.5 0l5 0 0 -6 -5 0 0 6zm-64 31l5 0 0 -6.5 -5 0 0 6.5zm7 0l5 0 0 -6.5 -5 0 0 6.5zm7 0l5 0 0 -6.5 -5 0 0 6.5zm7 0l5.5 0 0 -6.5 -5.5 0 0 6.5zm7.5 0l5 0 0 -6.5 -5 0 0 6.5zm12 2l-5 0 0 6 0.61 0 4.39 -5.04 0 -0.96zm-7 0l-5 0 0 6 5 0 0 -6zm-7 0l-5.5 0 0 6 5.5 0 0 -6zm-7.5 0l-5 0 0 6 5 0 0 -6zm-7 0l-5 0 0 6 5 0 0 -6zm-7 0l-5 0 0 6 5 0 0 -6zm69.48 -39l-3.48 0 0 4.16 3.48 -4.16zm-75.48 47.5l34.93 0 0.44 -0.5 -6.85 0 -0.02 0 -0.03 0 -7.45 0 -0.02 0 -0.03 0 -6.95 0 -0.02 0 -0.03 0 -6.95 0 -0.02 0 -0.03 0 -6.95 0 -0.02 0 0 0.5zm16 -56l66.59 0 2.92 -3.5 -69.51 0 0 3.5zm13.66 62l-13.66 0 0 3.5 10.57 0 3.09 -3.5z"/>
  <path class="play_park fil7 str0" d="M379.41 191.09l477.27 0 163.73 0 118.36 0 0 67.97 0 41.21 -2.5 0 0 217 -48.19 0 -16.81 0 0 119 65.02 0.08 -0.02 86.24 -4.98 0 0.39 50.02 0 6.67 0 14.74 0 22.04 0 33.54 0 87.63 0 1.86 -111.67 0 0 135.87 -215.04 0 -98.76 1.1 -326.8 0 0 -136.72 0 -108.12 59.93 0c0,-25.28 0,-50.56 0,-75.84l0 -31.04 -59.93 0 0 -100.01 0 -43.32 0 -389.92zm326.59 538.69l101.04 0 0 209.37 -101.04 0 0 -209.37z"/>
  <polygon class="fil1 str0" points="1020.01,939.09 1131.68,939.09 1131.68,1080.58 1020.01,1080.58 "/>
  <polygon class="toilet_north_mfil9 str0" points="1131.29,789.93 1063.95,789.93 1063.95,857.28 1131.29,857.28 "/>
  <polygon class="baby_room fil12 str0" points="1131.29,789.93 1063.95,789.93 1063.95,722.59 1131.29,722.59 "/>
  <path class="fil11" d="M794.14 883.81l0 7.24 0 2.57c0,0.55 -0.45,1 -1,1l-4.5 0 0 32.78 0 0.03c0,0.55 -0.45,1 -1.01,1l-0.01 0 -59.96 0 -0.03 0c-0.55,0 -1,-0.45 -1,-1l0 -0.03 0 -32.78 -4.49 0c-0.56,0 -1,-0.45 -1,-1l0 -44.92 0 -27.26 0 -8.09c14.89,12.39 27.97,23.34 40.89,34.34 10.77,9.17 21.2,18.19 32.11,27.79l0 8.33zm-28.5 -15.81l1.07 -0.88 -1.07 0 0 0.88zm3.5 -2.88l1.87 -1.54 -4.02 -3.46 -1.35 0 0 5 3.5 0zm0.7 2l-4.2 3.46 0 1.54 6.5 0 0 -5 -2.3 0zm-33.05 35.5l4.34 3.8 0 -3.8 -4.34 0zm6.35 3.88l4.71 -3.88 -4.71 0 0 3.88zm6.5 -2.77l-4.72 3.89 4.72 0 0 -3.89zm-10.16 3.89l-4.34 -3.8 0 3.8 4.34 0zm-9.84 18.31l8.88 0 16.11 0 0 -9.94 0 0 -0.01 0 -0.01 0.01 0 0 -0.09 0.04 0 0 -0.04 0.02 0 0 -0.04 0.01 -0.01 0 0 0 -0.02 0.01 0 0 -0.01 0 -0.02 0.01 0 0 -0.03 0.01 -0.01 0 -0.01 0 -0.01 0 -0.01 0 -0.01 0 -0.01 0.01 0 0 -0.02 0 -0.01 0 -0.01 0 -0.01 0 -0.02 0 -0.01 0.01 -0.01 0 -0.01 0 0 0 -0.02 0 -0.01 0 -0.01 0 -0.01 0 -0.02 0 -0.01 0 -1.45 0 -0.01 0 -0.01 0c-0.56,0 -1.01,-0.45 -1.01,-1l0 -0.03 0 -4.47 -0.99 0c-0.56,0 -1,-0.45 -1,-1l-7.48 0 -0.02 0 -0.03 0 -6.97 0c-0.01,0.55 -0.45,1 -1,1l-1 0 0 4.47 0 0.03c0,0.54 -0.44,0.98 -0.98,1l-0.03 0 -0.01 0 -0.02 0 -1.47 0 -0.49 0 -0.5 0 0 7.75 0 2.06zm27 0l2 0 0 -16.29 0 -56.68 -0.64 -0.53 -1.36 -1.17 0 58.36 0 0.02 0 16.29zm4 0l13.97 0 11.03 0 0 -9.81 0 -0.17c-0.02,0.01 -0.04,0.07 -0.05,0.17l-0.83 0 0 -0.01 -0.13 0.01 -0.97 0 -0.02 0 -0.03 0c-0.54,-0.02 -0.97,-0.46 -0.97,-1l0 -0.03 0 -4.47 -1.5 0c-0.56,0 -1,-0.45 -1.01,-1l-6.97 0 -0.02 0 -0.03 0 -7.47 0c-0.01,0.55 -0.45,1 -1,1l-0.29 0 0 4.5c0,0.55 -0.61,1 -1.36,1 -0.07,0 -0.14,-0.01 -0.2,-0.01 -0.05,0 -0.1,0.01 -0.15,0.01l-1.48 0 -0.01 0 -0.01 0 -0.02 0 -0.01 0 -0.01 0 -0.02 0 0 0 -0.01 0 -0.01 0 -0.01 -0.01 -0.02 0 -0.01 0 -0.01 0 -0.01 0 -0.02 0 0 0 -0.01 -0.01 -0.01 0 -0.01 0 -0.01 0 -0.01 0 -0.01 0 -0.03 -0.01 0 0 -0.02 -0.01 -0.01 0 0 0 -0.02 -0.01 0 0 -0.01 0 -0.03 -0.01 -0.01 0 -0.04 -0.02 0 0 -0.09 -0.04 0 0 -0.01 -0.01 -0.01 0 0 0 0 9.94zm-17.5 -86.08l0 3.77 4.47 0 -4.47 -3.77zm0 5.77l0 5.5 6.5 0 0 -5.5 -6.5 0zm0 7.5l0 5 6.5 0 0 -5 -6.5 0zm0 7l0 5 6.5 0 0 -5 -6.5 0zm0 7l0 5 6.5 0 0 -5 -6.5 0zm0 7l0 5 6.5 0 0 -5 -6.5 0zm0 7l0 5.5 6.5 0 0 -5.5 -6.5 0zm0 7.5l0 5 6.5 0 0 -5 -6.5 0zm0 7l0 5 6.5 0 0 -5 -6.5 0zm-2.01 5l0 -5 -5.99 0 0 5 5.99 0zm0 -7l0 -5 -5.99 0 0 5 5.99 0zm0 -7l0 -5.5 -5.99 0 0 5.5 5.99 0zm0 -7.5l0 -5 -5.99 0 0 5 5.99 0zm0 -7l0 -5 -5.99 0 0 5 5.99 0zm0 -7l0 -5 -5.99 0 0 5 5.99 0zm0 -7l0 -5 -5.99 0 0 5 5.99 0zm0 -7l0 -5.5 -5.99 0 0 5.5 5.99 0zm0 -7.5l0 -5 -5.99 0 0 5 5.99 0zm31.01 64l0 -5 -6.5 0 0 5 6.5 0zm0 -7l0 -5 -6.5 0 0 5 6.5 0zm0 -7l0 -5 -6.5 0 0 5 6.5 0zm0 -7l0 -5.5 -6.5 0 0 5.5 6.5 0zm0 -7.5l0 -5 -6.5 0 0 5 6.5 0zm2 -12l0 5 5.99 0 0 -0.62 -5.04 -4.38 -0.95 0zm0 7l0 5 5.99 0 0 -5 -5.99 0zm0 7l0 5.5 5.99 0 0 -5.5 -5.99 0zm0 7.5l0 5 5.99 0 0 -5 -5.99 0zm0 7l0 5 5.99 0 0 -5 -5.99 0zm0 7l0 5 5.99 0 0 -5 -5.99 0zm-39 -69.49l0 3.49 4.15 0 -4.15 -3.49zm47.5 75.49l0 -34.93 -0.5 -0.44 0 6.84 0 0.03 0 0.02 0 7.45 0 0.03 0 0.02 0 6.95 0 0.03 0 0.02 0 6.95 0 0.03 0 0.02 0 6.95 0 0.03 0.5 0zm-56.01 -16l0 -66.59 -3.49 -2.92 0 69.51 3.49 0zm62.01 -13.67l0 13.67 3.49 0 0 -10.58 -3.49 -3.09z"/>
  <g id="_2096424385312">
   <polyline class="fil10 str2" points="407.35,755.51 407.35,802.61 430.15,802.61 "/>
   <line class="fil10 str3" x1="407.35" y1="802.61" x2="381.07" y2= "802.61" />
   <line class="fil10 str4" x1="407.35" y1="797.65" x2="381.07" y2= "797.65" />
   <line class="fil10 str5" x1="407.35" y1="792.2" x2="381.07" y2= "792.2" />
   <line class="fil10 str6" x1="407.35" y1="786.74" x2="381.07" y2= "786.74" />
   <line class="fil10 str7" x1="407.35" y1="781.78" x2="381.07" y2= "781.78" />
   <line class="fil10 str8" x1="407.35" y1="776.33" x2="381.07" y2= "776.33" />
   <line class="fil10 str9" x1="407.35" y1="770.88" x2="381.07" y2= "770.88" />
   <line class="fil10 str10" x1="407.35" y1="765.92" x2="381.07" y2= "765.92" />
   <line class="fil10 str11" x1="407.35" y1="760.47" x2="381.07" y2= "760.47" />
   <line class="fil10 str12" x1="394.46" y1="755.51" x2="394.46" y2= "802.61" />
   <polyline class="fil10 str13" points="387.51,797.65 394.46,802.61 400.9,797.65 "/>
   <line class="fil10 str2" x1="407.35" y1="755.51" x2="381.07" y2= "755.51" />
   <polyline class="fil10 str14" points="406.35,754.52 406.35,803.6 431.14,803.6 "/>
   <line class="fil10 str15" x1="435.6" y1="808.06" x2="435.6" y2= "829.38" />
   <line class="fil10 str16" x1="430.15" y1="802.61" x2="430.15" y2= "829.38" />
   <line class="fil10 str17" x1="425.19" y1="802.61" x2="425.19" y2= "829.38" />
   <line class="fil10 str18" x1="419.74" y1="802.61" x2="419.74" y2= "829.38" />
   <line class="fil10 str19" x1="414.29" y1="802.61" x2="414.29" y2= "829.38" />
   <line class="fil10 str20" x1="409.33" y1="802.61" x2="409.33" y2= "829.38" />
   <polyline class="fil10 str21" points="409.33,815.99 440.56,815.99 435.6,811.03 "/>
   <path class="fil10 str16" d="M430.15 802.61l10.85 10.84m0 2.67l-0.44 0.86 0.44 -0.26"/>
   <line class="fil10 str22" x1="435.6" y1="820.95" x2="440.56" y2= "815.99" />
   <polygon class="fil13 str0" points="379.41,724.34 439.34,724.34 439.34,831.22 379.41,831.22 "/>
  </g>
  <polyline class="fil10 str23" points="1097.54,562.4 1097.54,609.49 1120.35,609.49 "/>
  <line class="fil10 str24" x1="1097.54" y1="609.49" x2="1071.27" y2= "609.49" />
  <line class="fil10 str25" x1="1097.54" y1="604.54" x2="1071.27" y2= "604.54" />
  <line class="fil10 str26" x1="1097.54" y1="599.08" x2="1071.27" y2= "599.08" />
  <line class="fil10 str27" x1="1097.54" y1="593.63" x2="1071.27" y2= "593.63" />
  <line class="fil10 str28" x1="1097.54" y1="588.67" x2="1071.27" y2= "588.67" />
  <line class="fil10 str29" x1="1097.54" y1="583.22" x2="1071.27" y2= "583.22" />
  <line class="fil10 str30" x1="1097.54" y1="577.76" x2="1071.27" y2= "577.76" />
  <line class="fil10 str31" x1="1097.54" y1="572.81" x2="1071.27" y2= "572.81" />
  <line class="fil10 str32" x1="1097.54" y1="567.35" x2="1071.27" y2= "567.35" />
  <line class="fil10 str33" x1="1084.65" y1="562.4" x2="1084.65" y2= "609.49" />
  <polyline class="fil10 str34" points="1077.71,604.54 1084.65,609.49 1091.1,604.54 "/>
  <line class="fil10 str23" x1="1097.54" y1="562.4" x2="1071.27" y2= "562.4" />
  <polyline class="fil10 str35" points="1096.55,561.4 1096.55,610.49 1121.34,610.49 "/>
  <line class="fil10 str36" x1="1125.8" y1="614.95" x2="1125.8" y2= "636.27" />
  <line class="fil10 str37" x1="1120.35" y1="609.49" x2="1120.35" y2= "636.27" />
  <line class="fil10 str38" x1="1115.39" y1="609.49" x2="1115.39" y2= "636.27" />
  <line class="fil10 str39" x1="1109.94" y1="609.49" x2="1109.94" y2= "636.27" />
  <line class="fil10 str40" x1="1104.48" y1="609.49" x2="1104.48" y2= "636.27" />
  <line class="fil10 str41" x1="1099.52" y1="609.49" x2="1099.52" y2= "636.27" />
  <polyline class="fil10 str42" points="1099.52,622.88 1130.76,622.88 1125.8,617.92 "/>
  <path class="fil10 str37" d="M1120.35 609.49l10.84 10.85m0 2.67l-0.43 0.86 0.43 -0.26"/>
  <line class="fil10 str43" x1="1125.8" y1="627.84" x2="1130.76" y2= "622.88" />
  <path class="fil14" d="M473.71 2324.87l0 -53.7 10.88 0 0 23.79 21.91 -23.79 14.57 0 -20.26 20.92 21.31 32.78 -14.02 0 -14.78 -25.21 -8.73 8.98 0 16.23 -10.88 0zm51.76 -26.52c0,-5.48 0.83,-10.08 2.47,-13.8 1.21,-2.74 2.88,-5.2 5,-7.38 2.11,-2.17 4.42,-3.78 6.93,-4.85 3.35,-1.41 7.22,-2.12 11.59,-2.12 7.93,0 14.25,2.46 19.01,7.37 4.75,4.93 7.13,11.77 7.13,20.53 0,8.69 -2.36,15.49 -7.08,20.39 -4.71,4.91 -11.02,7.36 -18.91,7.36 -7.99,0 -14.35,-2.44 -19.06,-7.33 -4.71,-4.87 -7.08,-11.6 -7.08,-20.17zm11.18 -0.36c0,6.08 1.41,10.7 4.22,13.85 2.82,3.13 6.39,4.71 10.72,4.71 4.33,0 7.88,-1.56 10.67,-4.68 2.78,-3.12 4.16,-7.8 4.16,-14.03 0,-6.17 -1.35,-10.77 -4.06,-13.79 -2.7,-3.04 -6.29,-4.55 -10.77,-4.55 -4.48,0 -8.09,1.54 -10.83,4.6 -2.74,3.07 -4.11,7.7 -4.11,13.89zm61.49 26.88l0 -44.62 -15.9 0 0 -9.08 42.6 0 0 9.08 -15.83 0 0 44.62 -10.87 0zm30.13 -26.52c0,-5.48 0.83,-10.08 2.46,-13.8 1.22,-2.74 2.89,-5.2 5.01,-7.38 2.11,-2.17 4.42,-3.78 6.93,-4.85 3.35,-1.41 7.22,-2.12 11.59,-2.12 7.93,0 14.25,2.46 19.01,7.37 4.75,4.93 7.13,11.77 7.13,20.53 0,8.69 -2.36,15.49 -7.08,20.39 -4.71,4.91 -11.02,7.36 -18.91,7.36 -7.99,0 -14.35,-2.44 -19.06,-7.33 -4.71,-4.87 -7.08,-11.6 -7.08,-20.17zm11.18 -0.36c0,6.08 1.41,10.7 4.22,13.85 2.81,3.13 6.39,4.71 10.72,4.71 4.33,0 7.88,-1.56 10.67,-4.68 2.78,-3.12 4.16,-7.8 4.16,-14.03 0,-6.17 -1.35,-10.77 -4.06,-13.79 -2.7,-3.04 -6.29,-4.55 -10.77,-4.55 -4.48,0 -8.09,1.54 -10.83,4.6 -2.74,3.07 -4.11,7.7 -4.11,13.89zm49.41 26.88l0 -53.7 10.53 0 22.09 35.99 0 -35.99 10.05 0 0 53.7 -10.86 0 -21.76 -35.3 0 35.3 -10.05 0z"/>
  <path class="fil14" d="M542.43 2827.82l7.25 0 0 8.54c0,2.76 0.1,4.6 0.31,5.5 0.2,0.91 0.81,1.69 1.82,2.36 1,0.66 2.48,1 4.43,1 1.54,0 2.92,-0.17 4.12,-0.5 1.2,-0.34 2.25,-0.83 3.12,-1.48l0 -15.42 7.25 0 0 35.8 -7.25 0 0 -14.43c-1.47,0.65 -2.91,1.14 -4.32,1.48 -1.42,0.33 -2.81,0.5 -4.18,0.5 -3.57,0 -6.55,-0.85 -8.95,-2.53 -2.4,-1.68 -3.6,-4.6 -3.6,-8.75l0 -12.07zm32.06 0l8.14 0 8.33 18.53 7.14 -18.53 7.54 0 -12.11 27.2c-1.32,2.95 -2.66,5.2 -4.02,6.74 -1.37,1.54 -3.13,2.31 -5.3,2.31 -2.13,0 -3.8,-0.15 -5,-0.42l0 -5.38c1.03,0.06 1.95,0.1 2.78,0.1 1.67,0 2.87,-0.31 3.59,-0.92 0.72,-0.62 1.42,-1.94 2.08,-3.97l-13.17 -25.66zm34.17 0l7.25 0 0 8.54c0,2.76 0.1,4.6 0.31,5.5 0.2,0.91 0.81,1.69 1.82,2.36 1,0.66 2.48,1 4.43,1 1.54,0 2.92,-0.17 4.13,-0.5 1.2,-0.34 2.24,-0.83 3.11,-1.48l0 -15.42 7.25 0 0 35.8 -7.25 0 0 -14.43c-1.46,0.65 -2.9,1.14 -4.32,1.48 -1.42,0.33 -2.81,0.5 -4.18,0.5 -3.56,0 -6.55,-0.85 -8.95,-2.53 -2.4,-1.68 -3.6,-4.6 -3.6,-8.75l0 -12.07zm35.74 0l14.31 0c2.85,0 4.95,0.11 6.35,0.35 1.39,0.24 2.64,0.73 3.74,1.47 1.1,0.75 2.01,1.74 2.75,2.98 0.73,1.25 1.1,2.65 1.1,4.19 0,1.66 -0.45,3.21 -1.35,4.6 -0.9,1.4 -2.13,2.44 -3.67,3.14 2.18,0.64 3.84,1.72 5.02,3.26 1.16,1.53 1.75,3.33 1.75,5.41 0,1.63 -0.38,3.21 -1.14,4.75 -0.75,1.55 -1.79,2.78 -3.1,3.7 -1.31,0.92 -2.93,1.49 -4.85,1.7 -1.2,0.13 -4.11,0.21 -8.72,0.25l-12.19 0 0 -35.8zm7.25 5.95l0 8.25 4.73 0c2.81,0 4.56,-0.05 5.24,-0.13 1.23,-0.14 2.21,-0.57 2.92,-1.27 0.71,-0.71 1.06,-1.64 1.06,-2.79 0,-1.11 -0.31,-2 -0.92,-2.69 -0.61,-0.69 -1.52,-1.11 -2.72,-1.25 -0.71,-0.08 -2.77,-0.12 -6.16,-0.12l-4.15 0zm0 14.2l0 9.6 6.7 0c2.6,0 4.26,-0.08 4.95,-0.22 1.08,-0.2 1.95,-0.68 2.63,-1.43 0.67,-0.77 1.02,-1.78 1.02,-3.05 0,-1.09 -0.26,-2 -0.79,-2.75 -0.51,-0.75 -1.27,-1.3 -2.26,-1.64 -0.98,-0.34 -3.12,-0.51 -6.41,-0.51l-5.84 0zm58.61 15.65l-7.81 0 -3.09 -8.15 -14.36 0 -2.97 8.15 -7.67 0 13.9 -35.8 7.66 0 14.34 35.8zm-13.25 -14.2l-4.97 -13.25 -4.84 13.25 9.81 0zm17.11 14.2l0 -35.8 11.59 0c4.39,0 7.25,0.17 8.58,0.53 2.05,0.54 3.77,1.71 5.15,3.51 1.39,1.8 2.08,4.12 2.08,6.97 0,2.2 -0.4,4.04 -1.19,5.54 -0.8,1.5 -1.81,2.68 -3.04,3.54 -1.22,0.85 -2.47,1.41 -3.74,1.69 -1.72,0.34 -4.21,0.52 -7.48,0.52l-4.7 0 0 13.5 -7.25 0zm7.25 -29.75l0 10.2 3.94 0c2.84,0 4.73,-0.2 5.69,-0.57 0.96,-0.38 1.71,-0.96 2.25,-1.77 0.54,-0.8 0.82,-1.72 0.82,-2.79 0,-1.31 -0.38,-2.38 -1.14,-3.23 -0.77,-0.85 -1.73,-1.39 -2.9,-1.6 -0.86,-0.16 -2.59,-0.24 -5.19,-0.24l-3.47 0zm53.96 29.75l-7.81 0 -3.09 -8.15 -14.36 0 -2.98 8.15 -7.66 0 13.9 -35.8 7.66 0 14.34 35.8zm-13.25 -14.2l-4.98 -13.25 -4.83 13.25 9.81 0z"/>
  <path class="fil15" d="M766.58 1274.57l-2.61 0 -1.03 -2.72 -4.78 0 -0.99 2.72 -2.56 0 4.63 -11.93 2.56 0 4.78 11.93zm-4.42 -4.73l-1.66 -4.42 -1.61 4.42 3.27 0zm5.7 4.73l0 -11.93 2.34 0 4.91 7.99 0 -7.99 2.24 0 0 11.93 -2.42 0 -4.83 -7.84 0 7.84 -2.24 0zm22.79 0l-2.6 0 -1.03 -2.72 -4.79 0 -0.99 2.72 -2.56 0 4.64 -11.93 2.55 0 4.78 11.93zm-4.42 -4.73l-1.66 -4.42 -1.61 4.42 3.27 0zm6.42 4.73l-2.8 -11.93 2.48 0 1.78 8.19 2.18 -8.19 2.87 0 2.08 8.33 1.82 -8.33 2.42 0 -2.87 11.93 -2.58 0 -2.36 -8.92 -2.37 8.92 -2.65 0zm23.93 0l-2.61 0 -1.03 -2.72 -4.78 0 -0.99 2.72 -2.56 0 4.63 -11.93 2.56 0 4.78 11.93zm-4.42 -4.73l-1.66 -4.42 -1.61 4.42 3.27 0zm9.75 4.73l0 -11.93 2.41 0 0 5.28 4.87 -5.28 3.24 0 -4.5 4.64 4.74 7.29 -3.12 0 -3.29 -5.6 -1.94 1.99 0 3.61 -2.41 0zm11.92 0l0 -11.93 2.41 0 0 11.93 -2.41 0zm4.71 -11.93l4.4 0c0.99,0 1.74,0.07 2.26,0.22 0.7,0.21 1.3,0.58 1.8,1.1 0.5,0.53 0.87,1.17 1.13,1.94 0.26,0.76 0.39,1.7 0.39,2.82 0,0.98 -0.12,1.82 -0.36,2.54 -0.3,0.87 -0.72,1.57 -1.28,2.1 -0.41,0.41 -0.98,0.73 -1.69,0.96 -0.53,0.17 -1.24,0.25 -2.13,0.25l-4.52 0 0 -11.93zm2.42 2.01l0 7.9 1.79 0c0.67,0 1.15,-0.04 1.45,-0.11 0.39,-0.1 0.71,-0.26 0.97,-0.5 0.26,-0.23 0.47,-0.61 0.63,-1.15 0.16,-0.53 0.24,-1.26 0.24,-2.18 0,-0.93 -0.08,-1.63 -0.24,-2.13 -0.16,-0.49 -0.39,-0.87 -0.68,-1.15 -0.3,-0.28 -0.67,-0.47 -1.12,-0.56 -0.33,-0.08 -0.99,-0.12 -1.96,-0.12l-1.08 0zm8.98 6.05l2.35 -0.23c0.14,0.79 0.43,1.36 0.86,1.73 0.43,0.37 1.01,0.55 1.74,0.55 0.77,0 1.35,-0.16 1.75,-0.49 0.39,-0.33 0.59,-0.71 0.59,-1.15 0,-0.28 -0.09,-0.52 -0.25,-0.72 -0.17,-0.2 -0.45,-0.37 -0.87,-0.51 -0.28,-0.1 -0.92,-0.28 -1.91,-0.53 -1.29,-0.32 -2.19,-0.71 -2.71,-1.18 -0.73,-0.66 -1.1,-1.46 -1.1,-2.41 0,-0.61 0.17,-1.18 0.52,-1.71 0.34,-0.53 0.83,-0.94 1.48,-1.21 0.65,-0.28 1.43,-0.42 2.34,-0.42 1.5,0 2.62,0.33 3.37,0.99 0.76,0.67 1.15,1.55 1.19,2.66l-2.41 0.08c-0.11,-0.61 -0.33,-1.05 -0.66,-1.32 -0.34,-0.27 -0.84,-0.41 -1.52,-0.41 -0.69,0 -1.24,0.14 -1.63,0.43 -0.25,0.19 -0.38,0.44 -0.38,0.75 0,0.28 0.12,0.52 0.36,0.72 0.3,0.26 1.04,0.53 2.21,0.81 1.17,0.27 2.03,0.56 2.59,0.85 0.56,0.3 1,0.7 1.32,1.22 0.31,0.51 0.47,1.15 0.47,1.9 0,0.68 -0.19,1.32 -0.57,1.92 -0.38,0.6 -0.91,1.04 -1.61,1.33 -0.69,0.29 -1.56,0.44 -2.6,0.44 -1.5,0 -2.66,-0.35 -3.47,-1.05 -0.81,-0.69 -1.29,-1.71 -1.45,-3.04z"/>
  <path class="fil14" d="M824.8 1134.73l0 -11.64 -4.15 0 0 -2.37 11.11 0 0 2.37 -4.12 0 0 11.64 -2.84 0zm8.8 0l0 -14.01 5.95 0c1.5,0 2.59,0.13 3.26,0.38 0.69,0.25 1.23,0.7 1.63,1.34 0.41,0.65 0.62,1.38 0.62,2.21 0,1.05 -0.31,1.92 -0.92,2.6 -0.62,0.69 -1.54,1.12 -2.77,1.3 0.61,0.35 1.12,0.74 1.51,1.17 0.4,0.43 0.93,1.19 1.6,2.28l1.71 2.73 -3.38 0 -2.03 -3.06c-0.72,-1.09 -1.22,-1.77 -1.49,-2.05 -0.27,-0.28 -0.55,-0.48 -0.85,-0.58 -0.31,-0.11 -0.78,-0.16 -1.43,-0.16l-0.58 0 0 5.85 -2.83 0zm2.83 -8.08l2.09 0c1.36,0 2.21,-0.06 2.54,-0.17 0.34,-0.12 0.61,-0.32 0.8,-0.6 0.19,-0.28 0.28,-0.63 0.28,-1.05 0,-0.47 -0.12,-0.85 -0.38,-1.14 -0.25,-0.29 -0.6,-0.47 -1.06,-0.55 -0.23,-0.03 -0.92,-0.05 -2.06,-0.05l-2.21 0 0 3.56zm23.91 8.08l-3.06 0 -1.21 -3.19 -5.61 0 -1.17 3.19 -3 0 5.44 -14.01 2.99 0 5.62 14.01zm-5.19 -5.56l-1.94 -5.18 -1.89 5.18 3.83 0zm8.83 5.56l-5.01 -14.01 3.06 0 3.56 10.37 3.41 -10.37 3.01 0 -4.98 14.01 -3.05 0zm9.46 0l0 -14.01 10.36 0 0 2.37 -7.53 0 0 3.11 7 0 0 2.37 -7 0 0 3.79 7.81 0 0 2.37 -10.64 0zm13.12 0l0 -13.89 2.84 0 0 11.52 7.02 0 0 2.37 -9.86 0zm11.87 0l0 -14.01 10.36 0 0 2.37 -7.53 0 0 3.11 7 0 0 2.37 -7 0 0 3.79 7.81 0 0 2.37 -10.64 0zm13.04 0l0 -14.01 5.96 0c1.49,0 2.58,0.13 3.26,0.38 0.68,0.25 1.22,0.7 1.63,1.34 0.41,0.65 0.61,1.38 0.61,2.21 0,1.05 -0.3,1.92 -0.92,2.6 -0.62,0.69 -1.54,1.12 -2.76,1.3 0.61,0.35 1.11,0.74 1.5,1.17 0.4,0.43 0.94,1.19 1.61,2.28l1.71 2.73 -3.38 0 -2.03 -3.06c-0.73,-1.09 -1.23,-1.77 -1.5,-2.05 -0.26,-0.28 -0.55,-0.48 -0.85,-0.58 -0.3,-0.11 -0.78,-0.16 -1.43,-0.16l-0.57 0 0 5.85 -2.84 0zm2.84 -8.08l2.09 0c1.36,0 2.2,-0.06 2.54,-0.17 0.33,-0.12 0.6,-0.32 0.79,-0.6 0.19,-0.28 0.29,-0.63 0.29,-1.05 0,-0.47 -0.13,-0.85 -0.38,-1.14 -0.25,-0.29 -0.61,-0.47 -1.06,-0.55 -0.23,-0.03 -0.92,-0.05 -2.07,-0.05l-2.2 0 0 3.56zm14.59 -3.3l-1.68 0 -2.64 -2.86 2.99 0 1.33 2.86zm2.47 6.84l2.75 -0.27c0.17,0.92 0.5,1.59 1.01,2.03 0.5,0.43 1.18,0.65 2.04,0.65 0.91,0 1.59,-0.2 2.05,-0.58 0.46,-0.39 0.69,-0.84 0.69,-1.35 0,-0.33 -0.1,-0.61 -0.29,-0.85 -0.19,-0.23 -0.53,-0.43 -1.01,-0.6 -0.33,-0.12 -1.08,-0.32 -2.25,-0.61 -1.51,-0.38 -2.57,-0.85 -3.18,-1.4 -0.86,-0.77 -1.29,-1.71 -1.29,-2.82 0,-0.72 0.21,-1.39 0.61,-2.01 0.4,-0.62 0.98,-1.09 1.74,-1.42 0.76,-0.33 1.67,-0.49 2.75,-0.49 1.75,0 3.07,0.39 3.95,1.17 0.89,0.78 1.35,1.81 1.4,3.11l-2.84 0.1c-0.12,-0.72 -0.38,-1.24 -0.77,-1.56 -0.4,-0.31 -0.99,-0.47 -1.78,-0.47 -0.81,0 -1.45,0.17 -1.91,0.51 -0.3,0.21 -0.45,0.5 -0.45,0.87 0,0.33 0.14,0.62 0.42,0.85 0.36,0.3 1.22,0.62 2.59,0.94 1.38,0.32 2.39,0.66 3.04,1.01 0.66,0.35 1.18,0.82 1.55,1.42 0.37,0.61 0.56,1.35 0.56,2.23 0,0.8 -0.22,1.56 -0.67,2.26 -0.45,0.7 -1.08,1.22 -1.89,1.56 -0.82,0.34 -1.83,0.51 -3.05,0.51 -1.77,0 -3.13,-0.41 -4.08,-1.22 -0.95,-0.82 -1.51,-2.01 -1.69,-3.57zm-78.67 17.55l2.74 0.85c-0.42,1.54 -1.12,2.68 -2.1,3.43 -0.98,0.75 -2.22,1.12 -3.72,1.12 -1.86,0 -3.39,-0.63 -4.59,-1.91 -1.19,-1.27 -1.79,-3 -1.79,-5.21 0,-2.33 0.6,-4.14 1.8,-5.43 1.2,-1.29 2.79,-1.94 4.75,-1.94 1.72,0 3.11,0.51 4.18,1.52 0.63,0.6 1.11,1.46 1.43,2.59l-2.8 0.66c-0.16,-0.72 -0.51,-1.3 -1.03,-1.72 -0.53,-0.42 -1.17,-0.63 -1.92,-0.63 -1.04,0 -1.88,0.38 -2.53,1.12 -0.65,0.75 -0.97,1.95 -0.97,3.62 0,1.77 0.32,3.03 0.95,3.78 0.64,0.75 1.47,1.13 2.49,1.13 0.75,0 1.4,-0.24 1.94,-0.72 0.54,-0.48 0.94,-1.23 1.17,-2.26zm4.58 -1.75c0,-1.43 0.22,-2.63 0.64,-3.6 0.32,-0.71 0.76,-1.35 1.31,-1.92 0.55,-0.57 1.15,-0.99 1.81,-1.27 0.87,-0.36 1.88,-0.55 3.02,-0.55 2.06,0 3.71,0.64 4.95,1.92 1.24,1.29 1.86,3.07 1.86,5.36 0,2.26 -0.61,4.03 -1.84,5.31 -1.23,1.28 -2.88,1.92 -4.93,1.92 -2.09,0 -3.75,-0.63 -4.97,-1.91 -1.23,-1.27 -1.85,-3.02 -1.85,-5.26zm2.91 -0.09c0,1.58 0.37,2.79 1.11,3.61 0.73,0.82 1.66,1.23 2.79,1.23 1.13,0 2.06,-0.41 2.78,-1.22 0.73,-0.82 1.09,-2.04 1.09,-3.66 0,-1.61 -0.35,-2.81 -1.06,-3.6 -0.7,-0.79 -1.64,-1.19 -2.81,-1.19 -1.17,0 -2.11,0.41 -2.82,1.2 -0.72,0.81 -1.08,2.01 -1.08,3.63zm12.89 7.01l0 -14.01 9.62 0 0 2.37 -6.79 0 0 3.33 5.87 0 0 2.36 -5.87 0 0 5.95 -2.83 0zm11.94 0l0 -14.01 9.63 0 0 2.37 -6.79 0 0 3.33 5.87 0 0 2.36 -5.87 0 0 5.95 -2.84 0zm11.95 0l0 -14.01 10.36 0 0 2.37 -7.52 0 0 3.11 7 0 0 2.37 -7 0 0 3.79 7.8 0 0 2.37 -10.64 0zm13.04 0l0 -14.01 10.37 0 0 2.37 -7.53 0 0 3.11 7 0 0 2.37 -7 0 0 3.79 7.8 0 0 2.37 -10.64 0z"/>
  <path class="fil14" d="M485.7 1222.35l5.25 1.61c-0.81,2.96 -2.15,5.15 -4.03,6.59 -1.87,1.43 -4.24,2.15 -7.13,2.15 -3.56,0 -6.5,-1.22 -8.8,-3.66 -2.29,-2.44 -3.44,-5.77 -3.44,-10 0,-4.47 1.16,-7.94 3.46,-10.42 2.31,-2.47 5.35,-3.71 9.11,-3.71 3.29,0 5.96,0.98 8,2.92 1.23,1.15 2.14,2.8 2.76,4.96l-5.37 1.27c-0.32,-1.39 -0.98,-2.49 -1.98,-3.29 -1.02,-0.81 -2.24,-1.21 -3.68,-1.21 -1.99,0 -3.61,0.71 -4.85,2.14 -1.24,1.43 -1.86,3.74 -1.86,6.94 0,3.39 0.61,5.81 1.83,7.25 1.22,1.44 2.81,2.16 4.77,2.16 1.44,0 2.68,-0.46 3.72,-1.38 1.04,-0.92 1.79,-2.35 2.24,-4.32zm8.78 -3.36c0,-2.74 0.41,-5.04 1.23,-6.9 0.61,-1.37 1.45,-2.6 2.5,-3.69 1.06,-1.09 2.22,-1.9 3.47,-2.43 1.68,-0.7 3.61,-1.06 5.8,-1.06 3.96,0 7.12,1.23 9.5,3.69 2.38,2.46 3.56,5.88 3.56,10.26 0,4.34 -1.18,7.74 -3.53,10.19 -2.36,2.46 -5.52,3.69 -9.46,3.69 -3.99,0 -7.17,-1.22 -9.53,-3.67 -2.36,-2.43 -3.54,-5.8 -3.54,-10.08zm5.59 -0.19c0,3.05 0.71,5.35 2.11,6.93 1.41,1.57 3.2,2.36 5.36,2.36 2.17,0 3.94,-0.79 5.34,-2.34 1.38,-1.56 2.08,-3.9 2.08,-7.02 0,-3.08 -0.68,-5.38 -2.03,-6.9 -1.35,-1.51 -3.15,-2.27 -5.39,-2.27 -2.24,0 -4.05,0.77 -5.41,2.3 -1.37,1.54 -2.06,3.85 -2.06,6.94zm24.86 13.45l0 -26.63 5.43 0 0 22.09 13.47 0 0 4.54 -18.9 0zm22.56 0l0 -26.85 5.44 0 0 26.85 -5.44 0zm10.61 0l0 -26.85 5.26 0 11.05 17.99 0 -17.99 5.03 0 0 26.85 -5.43 0 -10.89 -17.65 0 17.65 -5.02 0zm33.42 -21.83l-3.23 0 -5.06 -5.47 5.74 0 2.55 5.47zm4.72 13.13l5.29 -0.53c0.32,1.77 0.96,3.06 1.93,3.9 0.97,0.83 2.27,1.24 3.92,1.24 1.73,0 3.05,-0.37 3.93,-1.11 0.88,-0.73 1.32,-1.6 1.32,-2.58 0,-0.64 -0.19,-1.18 -0.55,-1.63 -0.37,-0.44 -1.02,-0.83 -1.95,-1.15 -0.63,-0.23 -2.07,-0.62 -4.32,-1.18 -2.89,-0.73 -4.92,-1.61 -6.09,-2.67 -1.64,-1.48 -2.46,-3.29 -2.46,-5.42 0,-1.37 0.38,-2.65 1.15,-3.85 0.78,-1.19 1.89,-2.1 3.35,-2.72 1.45,-0.63 3.2,-0.94 5.27,-0.94 3.35,0 5.88,0.74 7.58,2.24 1.7,1.49 2.58,3.48 2.67,5.97l-5.44 0.19c-0.23,-1.39 -0.72,-2.38 -1.48,-2.99 -0.75,-0.6 -1.89,-0.91 -3.4,-0.91 -1.57,0 -2.79,0.32 -3.67,0.98 -0.57,0.41 -0.86,0.97 -0.86,1.67 0,0.64 0.27,1.18 0.81,1.63 0.68,0.58 2.34,1.18 4.97,1.81 2.63,0.62 4.57,1.27 5.83,1.93 1.26,0.67 2.25,1.57 2.96,2.73 0.71,1.16 1.07,2.58 1.07,4.27 0,1.54 -0.43,2.99 -1.28,4.33 -0.86,1.34 -2.06,2.34 -3.63,2.99 -1.56,0.66 -3.51,0.99 -5.84,0.99 -3.39,0 -6,-0.79 -7.82,-2.35 -1.82,-1.57 -2.9,-3.85 -3.26,-6.84z"/>
  <path class="fil14" d="M552.1 603.86l0 -53.7 17.39 0c6.58,0 10.87,0.26 12.87,0.8 3.08,0.81 5.65,2.56 7.73,5.26 2.07,2.7 3.11,6.19 3.11,10.47 0,3.3 -0.6,6.06 -1.79,8.31 -1.2,2.25 -2.71,4.01 -4.55,5.3 -1.84,1.27 -3.71,2.12 -5.61,2.54 -2.59,0.51 -6.33,0.77 -11.23,0.77l-7.05 0 0 20.25 -10.87 0zm10.87 -44.62l0 15.3 5.92 0c4.26,0 7.1,-0.29 8.53,-0.85 1.44,-0.57 2.57,-1.44 3.38,-2.65 0.81,-1.2 1.22,-2.59 1.22,-4.19 0,-1.96 -0.57,-3.58 -1.71,-4.85 -1.15,-1.28 -2.59,-2.08 -4.35,-2.4 -1.29,-0.24 -3.87,-0.36 -7.77,-0.36l-5.22 0zm39.45 44.62l0 -53.25 10.88 0 0 44.18 26.92 0 0 9.07 -37.8 0zm93.89 0l-11.71 0 -4.64 -12.22 -21.54 0 -4.46 12.22 -11.5 0 20.85 -53.7 11.49 0 21.51 53.7zm-19.87 -21.3l-7.47 -19.87 -7.25 19.87 14.72 0zm32.87 21.3l0 -22.6 -19.69 -31.1 12.72 0 12.7 21.26 12.36 -21.26 12.47 0 -19.68 31.18 0 22.52 -10.88 0zm55.41 0l0 -53.7 17.39 0c6.59,0 10.88,0.26 12.88,0.8 3.07,0.81 5.65,2.56 7.72,5.26 2.08,2.7 3.11,6.19 3.11,10.47 0,3.3 -0.6,6.06 -1.78,8.31 -1.2,2.25 -2.72,4.01 -4.55,5.3 -1.84,1.27 -3.72,2.12 -5.62,2.54 -2.58,0.51 -6.32,0.77 -11.22,0.77l-7.05 0 0 20.25 -10.88 0zm10.88 -44.62l0 15.3 5.91 0c4.26,0 7.1,-0.29 8.54,-0.85 1.44,-0.57 2.56,-1.44 3.37,-2.65 0.82,-1.2 1.23,-2.59 1.23,-4.19 0,-1.96 -0.58,-3.58 -1.71,-4.85 -1.15,-1.28 -2.59,-2.08 -4.35,-2.4 -1.29,-0.24 -3.88,-0.36 -7.78,-0.36l-5.21 0zm81.96 44.62l-11.71 0 -4.64 -12.22 -21.54 0 -4.46 12.22 -11.5 0 20.85 -53.7 11.49 0 21.51 53.7zm-19.87 -21.3l-7.47 -19.87 -7.25 19.87 14.72 0zm25.66 21.3l0 -53.7 22.84 0c5.73,0 9.91,0.49 12.51,1.45 2.61,0.96 4.69,2.68 6.25,5.14 1.56,2.47 2.35,5.29 2.35,8.46 0,4.04 -1.17,7.36 -3.54,9.99 -2.36,2.62 -5.88,4.27 -10.59,4.96 2.34,1.36 4.27,2.86 5.78,4.5 1.52,1.64 3.58,4.55 6.15,8.73l6.55 10.47 -12.96 0 -7.78 -11.72c-2.78,-4.17 -4.7,-6.79 -5.74,-7.88 -1.02,-1.07 -2.11,-1.82 -3.26,-2.22 -1.16,-0.4 -2.99,-0.6 -5.48,-0.6l-2.21 0 0 22.42 -10.87 0zm10.87 -30.97l8.03 0c5.2,0 8.44,-0.23 9.74,-0.67 1.28,-0.43 2.31,-1.2 3.04,-2.27 0.73,-1.08 1.09,-2.43 1.09,-4.04 0,-1.81 -0.48,-3.26 -1.45,-4.39 -0.96,-1.11 -2.32,-1.81 -4.07,-2.1 -0.89,-0.12 -3.52,-0.18 -7.91,-0.18l-8.47 0 0 13.65zm43.44 30.97l0 -53.7 10.88 0 0 23.79 21.91 -23.79 14.58 0 -20.27 20.91 21.32 32.79 -14.03 0 -14.77 -25.21 -8.74 8.97 0 16.24 -10.88 0z"/>
  <path class="fil14" d="M1769.64 1311.77l0 -53.7 36.9 0 0 9.08 -26.02 0 0 12.75 22.5 0 0 9.07 -22.5 0 0 22.8 -10.88 0zm46.12 0l0 -53.25 10.87 0 0 44.18 26.93 0 0 9.07 -37.8 0zm43.26 -26.52c0,-5.47 0.82,-10.08 2.46,-13.8 1.21,-2.74 2.89,-5.2 5,-7.38 2.11,-2.17 4.43,-3.78 6.94,-4.84 3.35,-1.42 7.21,-2.13 11.59,-2.13 7.92,0 14.25,2.46 19.01,7.38 4.75,4.92 7.12,11.76 7.12,20.52 0,8.69 -2.36,15.49 -7.07,20.39 -4.71,4.91 -11.03,7.36 -18.91,7.36 -7.99,0 -14.35,-2.44 -19.07,-7.32 -4.71,-4.88 -7.07,-11.61 -7.07,-20.18zm11.17 -0.36c0,6.08 1.42,10.7 4.23,13.85 2.81,3.13 6.39,4.71 10.71,4.71 4.34,0 7.89,-1.56 10.68,-4.68 2.77,-3.12 4.16,-7.8 4.16,-14.03 0,-6.16 -1.35,-10.77 -4.06,-13.79 -2.7,-3.04 -6.29,-4.55 -10.78,-4.55 -4.47,0 -8.09,1.54 -10.82,4.6 -2.74,3.08 -4.12,7.7 -4.12,13.89z"/>
  <path class="fil14" d="M879.07 1834.7l30.88 0 0 37.19 3.93 0 0 17.31 -7.56 0 0 -9.75 -28.06 0 0 9.75 -7.56 0 0 -17.31 3.81 0c1.85,-3.82 3.08,-8.26 3.68,-13.3 0.59,-5.05 0.88,-11.44 0.88,-19.16l0 -4.73zm8.63 7.56c0,13.55 -1.25,23.42 -3.75,29.63l16.93 0 0 -29.63 -13.18 0zm32.27 37.19l0 -44.75 33.12 0 0 7.56 -24.06 0 0 9.94 22.38 0 0 7.56 -22.38 0 0 12.13 24.94 0 0 7.56 -34 0zm51.75 0l0 -37.19 -13.25 0 0 -7.56 35.5 0 0 7.56 -13.19 0 0 37.19 -9.06 0zm56.74 -16.5l8.75 2.69c-1.35,4.93 -3.59,8.58 -6.71,10.98 -3.13,2.39 -7.08,3.58 -11.89,3.58 -5.94,0 -10.83,-2.03 -14.66,-6.09 -3.83,-4.06 -5.74,-9.62 -5.74,-16.67 0,-7.45 1.93,-13.24 5.77,-17.36 3.84,-4.13 8.91,-6.19 15.18,-6.19 5.47,0 9.92,1.62 13.34,4.86 2.04,1.92 3.56,4.67 4.58,8.26l-8.94 2.13c-0.53,-2.31 -1.63,-4.15 -3.31,-5.49 -1.68,-1.34 -3.73,-2.01 -6.12,-2.01 -3.33,0 -6.02,1.19 -8.09,3.57 -2.07,2.38 -3.1,6.23 -3.1,11.57 0,5.64 1.02,9.67 3.05,12.07 2.04,2.4 4.69,3.6 7.95,3.6 2.41,0 4.48,-0.76 6.21,-2.29 1.73,-1.53 2.98,-3.93 3.73,-7.21zm16.63 -28.25l9.07 0 0 19.06c2.01,-0.2 3.37,-0.71 4.08,-1.56 0.71,-0.83 1.81,-3.15 3.29,-6.97 1.87,-4.84 3.75,-7.86 5.64,-9.04 1.87,-1.18 4.88,-1.77 9.05,-1.77 0.21,0 0.64,-0.01 1.31,-0.03l0 6.69 -1.28 -0.03c-1.85,0 -3.21,0.23 -4.06,0.68 -0.86,0.46 -1.54,1.16 -2.08,2.1 -0.53,0.93 -1.31,2.86 -2.34,5.78 -0.55,1.55 -1.14,2.84 -1.79,3.88 -0.64,1.05 -1.77,2.03 -3.4,2.94 2.01,0.56 3.67,1.72 4.98,3.45 1.32,1.73 2.75,4.17 4.32,7.32l6.09 12.25 -10.63 0 -5.36 -11.52c-0.08,-0.16 -0.26,-0.48 -0.52,-0.95 -0.11,-0.15 -0.48,-0.86 -1.13,-2.1 -1.14,-2.21 -2.08,-3.58 -2.81,-4.14 -0.74,-0.55 -1.85,-0.83 -3.36,-0.85l0 19.56 -9.07 0 0 -44.75zm38.15 0l8.44 0 0 29.79 18.12 -29.79 9 0 0 44.75 -8.44 0 0 -29.31 -18.12 29.31 -9 0 0 -44.75zm44.93 0l8.44 0 0 29.79 18.12 -29.79 9 0 0 44.75 -8.44 0 0 -29.31 -18.12 29.31 -9 0 0 -44.75zm23.12 -12.93l4.19 0c-0.24,2.76 -1.22,4.93 -2.92,6.51 -1.7,1.57 -3.89,2.36 -6.59,2.36 -2.71,0 -4.91,-0.79 -6.6,-2.36 -1.7,-1.58 -2.68,-3.75 -2.92,-6.51l4.19 0c0.14,1.43 0.64,2.53 1.52,3.27 0.87,0.74 2.14,1.1 3.81,1.1 1.66,0 2.93,-0.36 3.8,-1.1 0.88,-0.74 1.38,-1.84 1.52,-3.27zm-196.55 127.51l0 -44.75 13.58 0 8.02 30.52 7.92 -30.52 13.61 0 0 44.75 -8.38 0 -0.03 -35.23 -8.82 35.23 -8.71 0 -8.78 -35.23 -0.03 35.23 -8.38 0zm52.32 -44.75l8.43 0 0 29.79 18.13 -29.79 9 0 0 44.75 -8.44 0 0 -29.32 -18.12 29.32 -9 0 0 -44.75zm44.8 44.75l0 -44.75 14.49 0c5.49,0 9.06,0.22 10.73,0.66 2.56,0.68 4.71,2.14 6.43,4.39 1.73,2.25 2.6,5.16 2.6,8.72 0,2.75 -0.5,5.05 -1.49,6.93 -1,1.87 -2.26,3.34 -3.79,4.41 -1.53,1.06 -3.1,1.77 -4.68,2.12 -2.16,0.42 -5.27,0.64 -9.35,0.64l-5.88 0 0 16.88 -9.06 0zm9.06 -37.19l0 12.75 4.93 0c3.55,0 5.92,-0.24 7.11,-0.71 1.2,-0.47 2.14,-1.2 2.82,-2.21 0.67,-1 1.02,-2.15 1.02,-3.49 0,-1.63 -0.48,-2.98 -1.43,-4.04 -0.96,-1.06 -2.16,-1.73 -3.63,-2 -1.07,-0.2 -3.23,-0.3 -6.47,-0.3l-4.35 0z"/>
  <path class="fil15" d="M795.54 1406.47l0 -11.83 2.42 0 0 9.81 5.98 0 0 2.02 -8.4 0zm59.11 -1.51c0.59,0.42 1.23,0.76 1.93,1.01l-0.89 1.72c-0.36,-0.11 -0.72,-0.26 -1.06,-0.45 -0.08,-0.04 -0.61,-0.39 -1.6,-1.07 -0.78,0.35 -1.65,0.52 -2.6,0.52 -1.83,0 -3.27,-0.54 -4.31,-1.62 -1.04,-1.09 -1.56,-2.61 -1.56,-4.57 0,-1.95 0.52,-3.47 1.56,-4.55 1.05,-1.09 2.46,-1.63 4.24,-1.63 1.77,0 3.18,0.54 4.21,1.63 1.04,1.08 1.56,2.6 1.56,4.55 0,1.03 -0.15,1.94 -0.44,2.72 -0.21,0.6 -0.56,1.18 -1.04,1.74zm-1.93 -1.36c0.31,-0.36 0.54,-0.8 0.69,-1.32 0.15,-0.51 0.23,-1.11 0.23,-1.78 0,-1.38 -0.3,-2.41 -0.91,-3.09 -0.61,-0.68 -1.4,-1.02 -2.38,-1.02 -0.99,0 -1.78,0.34 -2.39,1.03 -0.61,0.68 -0.92,1.71 -0.92,3.09 0,1.4 0.31,2.44 0.92,3.14 0.61,0.69 1.38,1.04 2.32,1.04 0.35,0 0.67,-0.06 0.98,-0.18 -0.48,-0.31 -0.98,-0.56 -1.48,-0.74l0.67 -1.4c0.79,0.28 1.55,0.68 2.27,1.23zm-47.63 2.87l0 -11.93 8.83 0 0 2.01 -6.42 0 0 2.65 5.97 0 0 2.02 -5.97 0 0 3.23 6.65 0 0 2.02 -9.06 0zm16.1 -4.38l0 -2.02 5.18 0 0 4.76c-0.5,0.49 -1.24,0.92 -2.19,1.3 -0.96,0.37 -1.93,0.56 -2.91,0.56 -1.25,0 -2.33,-0.26 -3.26,-0.79 -0.93,-0.52 -1.62,-1.28 -2.09,-2.25 -0.47,-0.98 -0.7,-2.04 -0.7,-3.19 0,-1.24 0.26,-2.35 0.78,-3.32 0.52,-0.96 1.28,-1.71 2.29,-2.23 0.76,-0.39 1.71,-0.59 2.85,-0.59 1.48,0 2.64,0.31 3.47,0.93 0.83,0.63 1.37,1.49 1.61,2.59l-2.4 0.45c-0.17,-0.59 -0.49,-1.05 -0.95,-1.39 -0.46,-0.34 -1.04,-0.51 -1.73,-0.51 -1.05,0 -1.89,0.33 -2.51,1 -0.62,0.67 -0.93,1.66 -0.93,2.98 0,1.41 0.32,2.48 0.94,3.19 0.63,0.71 1.46,1.06 2.48,1.06 0.5,0 1,-0.1 1.51,-0.3 0.51,-0.19 0.94,-0.44 1.3,-0.72l0 -1.51 -2.74 0zm6.34 -1.51c0,-1.22 0.19,-2.24 0.55,-3.07 0.27,-0.61 0.64,-1.16 1.11,-1.64 0.47,-0.48 0.98,-0.84 1.54,-1.08 0.75,-0.31 1.6,-0.47 2.58,-0.47 1.76,0 3.16,0.55 4.22,1.64 1.06,1.09 1.59,2.61 1.59,4.56 0,1.93 -0.53,3.44 -1.58,4.53 -1.04,1.09 -2.45,1.64 -4.2,1.64 -1.77,0 -3.19,-0.54 -4.24,-1.63 -1.04,-1.08 -1.57,-2.58 -1.57,-4.48zm2.48 -0.08c0,1.35 0.32,2.37 0.94,3.07 0.63,0.7 1.42,1.05 2.39,1.05 0.96,0 1.75,-0.35 2.37,-1.04 0.61,-0.69 0.92,-1.73 0.92,-3.12 0,-1.37 -0.3,-2.39 -0.9,-3.06 -0.6,-0.68 -1.4,-1.01 -2.39,-1.01 -1,0 -1.8,0.34 -2.41,1.02 -0.61,0.68 -0.92,1.71 -0.92,3.09zm38.2 5.97l-2.61 0 -1.03 -2.72 -4.78 0 -0.99 2.72 -2.56 0 4.63 -11.93 2.56 0 4.78 11.93zm-4.42 -4.73l-1.66 -4.42 -1.61 4.42 3.27 0zm5.2 4.73l0 -11.83 2.42 0 0 9.81 5.98 0 0 2.02 -8.4 0zm20.3 0l-2.6 0 -1.03 -2.72 -4.79 0 -0.99 2.72 -2.56 0 4.64 -11.93 2.55 0 4.78 11.93zm-4.42 -4.73l-1.66 -4.42 -1.61 4.42 3.27 0z"/>
  <polygon class="fil9 str0" points="1131.29,924.63 1063.95,924.63 1063.95,857.28 1131.29,857.28 "/>
  <g id="_2096424370368">
   <polygon class="lift fil9 str0" points="528.87,695.28 461.53,695.28 461.53,762.62 528.87,762.62 "/>
   <g>
    <polygon class="fil0" points="477.68,716.53 484.95,703.43 492.22,716.53 "/>
    <polygon class="fil0" points="498.17,703.43 505.44,716.53 512.71,703.43 "/>
    <path class="fil0" d="M484.57 720.22c1.73,0 3.13,1.4 3.13,3.13 0,1.72 -1.4,3.12 -3.13,3.12 -1.73,0 -3.13,-1.4 -3.13,-3.12 0,-1.73 1.4,-3.13 3.13,-3.13z"/>
    <path class="fil0" d="M480.51 727.35l8.17 0c1.48,0 2.7,1.22 2.7,2.71l0 1.38 0 4.83 0 3.51c0,0.67 -0.54,1.21 -1.21,1.21l0 0c-0.66,0 -1.2,-0.54 -1.2,-1.21l0 -0.82 -0.02 0 0 -7.12c0,-0.24 -0.2,-0.44 -0.44,-0.44l0 0c-0.24,0 -0.44,0.2 -0.44,0.44l0 5.3 0 1.83 0 0.09 0 3.42 0 10.43c0,0.86 -0.7,1.56 -1.56,1.56l0 0c-0.86,0 -1.57,-0.7 -1.57,-1.56l0 -6.96 0 -5.4c0,-0.24 -0.19,-0.44 -0.44,-0.44l0 0c-0.24,0 -0.43,0.2 -0.43,0.44l0 5.38 0 7.06c0,0.82 -0.67,1.48 -1.48,1.48l0 0c-0.81,0 -1.48,-0.66 -1.48,-1.48l0 -10.51 0 -3.42 0 -0.09 0 -1.91 0 -5.22c0,-0.24 -0.2,-0.44 -0.44,-0.44l0 0c-0.24,0 -0.44,0.2 -0.44,0.44l0 7.12 -0.01 0 0 0.82c0,0.67 -0.55,1.21 -1.21,1.21l0 0c-0.66,0 -1.21,-0.54 -1.21,-1.21l0 -3.51 0 -4.83 0 -1.38c0,-1.49 1.22,-2.71 2.71,-2.71z"/>
    <path class="fil0" d="M505.46 720.22c1.73,0 3.13,1.4 3.13,3.13 0,1.72 -1.4,3.12 -3.13,3.12 -1.72,0 -3.12,-1.4 -3.12,-3.12 0,-1.73 1.4,-3.13 3.12,-3.13z"/>
    <path class="fil0" d="M501.4 727.35l8.17 0c1.49,0 2.7,1.22 2.7,2.71l0 1.38 0 4.83 0 3.51c0,0.67 -0.54,1.21 -1.2,1.21l0 0c-0.67,0 -1.21,-0.54 -1.21,-1.21l0 -0.82 -0.02 0 0 -7.12c0,-0.24 -0.19,-0.44 -0.44,-0.44l0 0c-0.24,0 -0.43,0.2 -0.43,0.44l0 5.3 0 1.83 0 0.09 0 3.42 0 10.43c0,0.86 -0.71,1.56 -1.57,1.56l0 0c-0.86,0 -1.56,-0.7 -1.56,-1.56l0 -6.96 0 -5.4c0,-0.24 -0.2,-0.44 -0.44,-0.44l0 0c-0.24,0 -0.44,0.2 -0.44,0.44l0 5.38 0 7.06c0,0.82 -0.67,1.48 -1.48,1.48l0 0c-0.81,0 -1.48,-0.66 -1.48,-1.48l0 -10.51 0 -3.42 0 -0.09 0 -1.91 0 -5.22c0,-0.24 -0.19,-0.44 -0.44,-0.44l0 0c-0.24,0 -0.43,0.2 -0.43,0.44l0 7.12 -0.02 0 0 0.82c0,0.67 -0.54,1.21 -1.21,1.21l0 0c-0.66,0 -1.2,-0.54 -1.2,-1.21l0 -3.51 0 -4.83 0 -1.38c0,-1.49 1.21,-2.71 2.7,-2.71z"/>
   </g>
  </g>
  <g id="_2096424368096">
   <path class="fil0" d="M1093.94 2691.23c2.38,0 4.32,1.93 4.32,4.31 0,2.38 -1.94,4.31 -4.32,4.31 -2.38,0 -4.31,-1.93 -4.31,-4.31 0,-2.38 1.93,-4.31 4.31,-4.31z"/>
   <path class="fil0" d="M1088.33 2701.07l11.27 0c2.05,0 3.73,1.67 3.73,3.73l0 1.91 0 6.66 0 4.84c0,0.92 -0.75,1.67 -1.66,1.67l0 0c-0.92,0 -1.67,-0.75 -1.67,-1.67l0 -1.14 -0.02 0 0 -9.81c0,-0.34 -0.27,-0.61 -0.61,-0.61l0 0c-0.33,0 -0.6,0.27 -0.6,0.61l0 7.31 0 2.52 0 0.12 0 4.72 0 14.38c0,1.19 -0.97,2.16 -2.16,2.16l0 0c-1.19,0 -2.16,-0.97 -2.16,-2.16l0 -9.6 0 -7.44c0,-0.34 -0.27,-0.61 -0.6,-0.61l0 0c-0.34,0 -0.61,0.27 -0.61,0.61l0 7.41 0 9.75c0,1.12 -0.92,2.04 -2.04,2.04l0 0c-1.12,0 -2.03,-0.92 -2.03,-2.04l0 -14.49 0 -4.73 0 -0.12 0 -2.64 0 -7.19c0,-0.34 -0.28,-0.61 -0.61,-0.61l0 0c-0.33,0 -0.6,0.27 -0.6,0.61l0 9.81 -0.03 0 0 1.14c0,0.92 -0.75,1.67 -1.66,1.67l0 0c-0.92,0 -1.66,-0.75 -1.66,-1.67l0 -4.84 0 -6.66 0 -1.91c0,-2.06 1.67,-3.73 3.72,-3.73z"/>
  </g>
  <g id="_2096424367392">
   <path class="fil0" d="M1161.4 2691.23c2.38,0 4.31,1.93 4.31,4.31 0,2.38 -1.93,4.31 -4.31,4.31 -2.38,0 -4.31,-1.93 -4.31,-4.31 0,-2.38 1.93,-4.31 4.31,-4.31z"/>
   <path class="fil0" d="M1161.31 2701.07c1.98,0 3.95,0 5.93,0 1.25,0 2.3,0.85 2.6,2l0 0 0.85 3.32 0.16 0.62 1.13 4.41 0.16 0.62 1.05 4.07c0.22,0.89 -0.31,1.8 -1.2,2.02l0 0c-0.89,0.23 -1.8,-0.31 -2.03,-1.19 -0.35,-1.36 -0.71,-2.69 -1.06,-4.07l-1.45 -5.65 -0.02 -0.04c-0.03,-0.3 -0.29,-0.53 -0.6,-0.53l0 0c-0.4,0 -0.6,0.31 -0.6,0.65 1.39,5.39 2.79,10.77 4.18,16.15 -1.39,0 -2.79,0 -4.18,0l0 12.86c0,1.19 -0.97,2.16 -2.16,2.16l0 0c-1.19,0 -2.16,-0.97 -2.16,-2.16 0,-4.27 0,-8.55 0,-12.82l0 -0.04 0 0c-0.02,-0.32 -0.28,-0.57 -0.6,-0.57 -0.32,0 -0.59,0.25 -0.61,0.57l0 0 0 0.04c0,4.27 0,8.55 0,12.82 0,1.19 -0.97,2.16 -2.16,2.16l0 0c-1.18,0 -2.15,-0.97 -2.15,-2.16l0 -12.86c-1.4,0 -2.79,0 -4.19,0 1.38,-5.3 2.75,-10.61 4.13,-15.91 0.02,-0.1 0.06,-0.21 0.05,-0.31 -0.01,-0.12 -0.04,-0.23 -0.1,-0.32 -0.19,-0.3 -0.61,-0.34 -0.87,-0.13 -0.13,0.1 -0.21,0.24 -0.23,0.4l-0.01 0.04 -1.45 5.65c-0.36,1.38 -0.72,2.71 -1.07,4.07 -0.23,0.88 -1.14,1.42 -2.02,1.19l0 0c-0.89,-0.22 -1.43,-1.13 -1.2,-2.02l1.04 -4.07 0.16 -0.62 1.13 -4.41 0.16 -0.62 0.86 -3.32 0 0c0.3,-1.15 1.34,-2 2.59,-2 1.98,0 3.96,0 5.94,0z"/>
  </g>
  <polygon class="prayer_room fil16 str0" points="1060.3,2646.82 1127.64,2646.82 1127.64,2579.47 1060.3,2579.47 "/>
  <polygon class="prayer_room fil17 str0" points="1194.98,2646.82 1127.64,2646.82 1127.64,2579.47 1194.98,2579.47 "/>
  <g id="_2096424362912">
   <path class="fil0" d="M1168.7 2601.79c-1.2,2.88 -4.04,4.9 -7.35,4.9 -4.39,0 -7.95,-3.56 -7.95,-7.96 0,-3.96 2.9,-7.25 6.7,-7.85 -1.97,1.23 -3.27,3.42 -3.27,5.91 0,3.86 3.13,6.99 6.99,6.99 1.9,0 3.62,-0.76 4.88,-1.99z"/>
   <polygon class="fil0" points="1160.63,2604.95 1161.99,2604.95 1162.85,2615.67 1159.76,2615.67 "/>
   <polygon class="fil0" points="1138.77,2629.99 1183.84,2629.99 1183.84,2635.41 1138.77,2635.41 "/>
   <path class="fil0" d="M1180.42 2633.58c0.04,-0.53 0.06,-1.06 0.06,-1.61 0,-10.59 -8.58,-19.17 -19.17,-19.17 -10.6,0 -19.18,8.58 -19.18,19.17 0,0.55 0.02,1.08 0.07,1.61l38.22 0z"/>
   <polygon class="fil0" points="1163.76,2592.65 1164.68,2595.4 1167.68,2595.39 1165.25,2597.08 1166.18,2599.83 1163.76,2598.13 1161.34,2599.83 1162.27,2597.08 1159.84,2595.39 1162.84,2595.4 "/>
  </g>
  <g id="_2096424361664">
   <path class="fil0" d="M1101.36 2601.79c-1.2,2.88 -4.03,4.9 -7.35,4.9 -4.39,0 -7.95,-3.56 -7.95,-7.96 0,-3.96 2.9,-7.25 6.7,-7.85 -1.97,1.23 -3.27,3.42 -3.27,5.91 0,3.86 3.13,6.99 6.99,6.99 1.9,0 3.62,-0.76 4.88,-1.99z"/>
   <polygon class="fil0" points="1093.29,2604.95 1094.65,2604.95 1095.51,2615.67 1092.42,2615.67 "/>
   <polygon class="fil0" points="1071.43,2629.99 1116.5,2629.99 1116.5,2635.41 1071.43,2635.41 "/>
   <path class="fil0" d="M1113.08 2633.58c0.04,-0.53 0.07,-1.06 0.07,-1.61 0,-10.59 -8.59,-19.17 -19.18,-19.17 -10.59,0 -19.18,8.58 -19.18,19.17 0,0.55 0.02,1.08 0.07,1.61l38.22 0z"/>
   <polygon class="fil0" points="1096.42,2592.65 1097.34,2595.4 1100.34,2595.39 1097.91,2597.08 1098.84,2599.83 1096.42,2598.13 1094,2599.83 1094.93,2597.08 1092.51,2595.39 1095.5,2595.4 "/>
  </g>
  <g id="_2096424359904">
   <path class="fil0" d="M1097.59 867.33c2.38,0 4.32,1.93 4.32,4.32 0,2.38 -1.94,4.31 -4.32,4.31 -2.38,0 -4.31,-1.93 -4.31,-4.31 0,-2.39 1.93,-4.32 4.31,-4.32z"/>
   <path class="fil0" d="M1091.98 877.17l11.27 0c2.05,0 3.73,1.68 3.73,3.73l0 1.91 0 6.66 0 4.85c0,0.91 -0.75,1.66 -1.66,1.66l0 0c-0.92,0 -1.67,-0.75 -1.67,-1.66l0 -1.14 -0.02 0 0 -9.82c0,-0.33 -0.27,-0.6 -0.6,-0.6l0 0c-0.34,0 -0.61,0.27 -0.61,0.6l0 7.32 0 2.52 0 0.12 0 4.72 0 14.37c0,1.19 -0.97,2.16 -2.16,2.16l0 0c-1.18,0 -2.15,-0.97 -2.15,-2.16l0 -9.59 0 -7.45c0,-0.33 -0.28,-0.6 -0.61,-0.6l0 0c-0.33,0 -0.61,0.27 -0.61,0.6l0 7.42 0 9.75c0,1.12 -0.91,2.03 -2.03,2.03l0 0c-1.12,0 -2.04,-0.91 -2.04,-2.03l0 -14.5 0 -4.72 0 -0.12 0 -2.65 0 -7.19c0,-0.33 -0.27,-0.6 -0.61,-0.6l0 0c-0.33,0 -0.6,0.27 -0.6,0.6l0 9.82 -0.02 0 0 1.14c0,0.91 -0.75,1.66 -1.67,1.66l0 0c-0.91,0 -1.66,-0.75 -1.66,-1.66l0 -4.85 0 -6.66 0 -1.91c0,-2.05 1.68,-3.73 3.72,-3.73z"/>
  </g>
  <g id="_2096424358464">
   <path class="fil0" d="M1097.71 799.99c2.38,0 4.32,1.93 4.32,4.31 0,2.38 -1.94,4.31 -4.32,4.31 -2.38,0 -4.31,-1.93 -4.31,-4.31 0,-2.38 1.93,-4.31 4.31,-4.31z"/>
   <path class="fil0" d="M1097.62 809.83c1.98,0 3.95,0 5.93,0 1.25,0 2.3,0.85 2.6,2l0 0 0.85 3.32 0.16 0.62 1.13 4.41 0.16 0.62 1.05 4.07c0.23,0.89 -0.31,1.8 -1.2,2.02l0 0c-0.89,0.23 -1.8,-0.31 -2.03,-1.19 -0.35,-1.36 -0.71,-2.69 -1.06,-4.07l-1.45 -5.65 -0.01 -0.04c-0.04,-0.3 -0.3,-0.53 -0.61,-0.53l0 0c-0.4,0 -0.6,0.31 -0.6,0.65 1.4,5.38 2.79,10.77 4.18,16.15 -1.39,0 -2.78,0 -4.18,0l0 12.86c0,1.19 -0.97,2.16 -2.16,2.16l0 0c-1.18,0 -2.16,-0.97 -2.16,-2.16 0,-4.28 0,-8.55 0,-12.82l0 -0.04 0 0c-0.02,-0.32 -0.28,-0.57 -0.6,-0.57 -0.32,0 -0.59,0.25 -0.61,0.57l0 0 0 0.04c0,4.27 0,8.54 0,12.82 0,1.19 -0.97,2.16 -2.16,2.16l0 0c-1.18,0 -2.15,-0.97 -2.15,-2.16l0 -12.86c-1.4,0 -2.79,0 -4.19,0 1.38,-5.3 2.75,-10.61 4.13,-15.91 0.02,-0.1 0.06,-0.21 0.05,-0.31 -0.01,-0.12 -0.04,-0.23 -0.1,-0.32 -0.19,-0.3 -0.61,-0.34 -0.87,-0.13 -0.12,0.1 -0.21,0.24 -0.23,0.4l-0.01 0.04 -1.45 5.65c-0.35,1.38 -0.72,2.71 -1.07,4.07 -0.23,0.88 -1.14,1.42 -2.02,1.19l0 0c-0.89,-0.22 -1.43,-1.13 -1.2,-2.02l1.04 -4.07 0.16 -0.62 1.14 -4.41 0.15 -0.62 0.86 -3.32 0 0c0.3,-1.15 1.35,-2 2.59,-2 1.98,0 3.96,0 5.94,0z"/>
  </g>
  <path class="fil0" d="M1083.1 776.04l0 -18.05 0 -0.06 0 -0.02 0 -0.01c0,-0.21 0.02,-0.42 0.07,-0.63 0.08,-0.41 0.24,-0.82 0.49,-1.2l8.68 -13.06c1.04,-1.56 3.17,-1.99 4.73,-0.95l0 0c0.83,0.55 1.34,1.4 1.48,2.31l0 0 1.41 6.63 4.85 2.98c0.78,0.48 1.02,1.51 0.54,2.28l0 0c-0.48,0.78 -1.5,1.02 -2.28,0.54l-5.32 -3.27 0 0c-0.44,-0.22 -0.77,-0.63 -0.88,-1.14l-0.62 -2.92 -6.81 10.25 0 16.32c0,1.74 -1.43,3.17 -3.17,3.17l0 0c-1.75,0 -3.17,-1.43 -3.17,-3.17zm20.14 -13.55l0.09 0 0 -2.61c0,-0.64 0.52,-1.17 1.17,-1.17l0 0c0.64,0 1.17,0.53 1.17,1.17l0 3.85 0 1.2 0 0 0 1.2 0 0.02c0,0.22 -0.06,0.42 -0.16,0.59 -0.21,0.38 -0.62,0.64 -1.08,0.64l-1.19 0 -0.01 0 -1.16 0 -4.26 0c-1.34,0 -2.44,-1.1 -2.44,-2.45l0 0c0,-0.14 0.01,-0.28 0.04,-0.42 0.01,-0.17 0.05,-0.34 0.14,-0.5l0 0c0.07,-0.18 0.17,-0.34 0.28,-0.49l1.68 -3.03 -1.42 -1.01 -0.01 -0.01 -0.78 -0.55c-0.52,-0.37 -0.65,-1.11 -0.28,-1.63l0 0c0.38,-0.53 1.11,-0.66 1.64,-0.28l0.78 0.56 1.5 1.06 0 0 0.78 0.56c0.32,0.22 0.49,0.57 0.5,0.93l0 0 0 0.01 0 0.03 0 2.33 1.85 0 1.16 0 0 0 0 0 0 0 0 0 0 0 0.01 0 0 0 0 0 0 0zm-7.43 6.02l15.96 0c0.2,0 0.37,0.17 0.37,0.37l0 2.61c0,0.21 -0.17,0.38 -0.37,0.38l-15.96 0c-0.2,0 -0.37,-0.17 -0.37,-0.38l0 -2.61c0,-0.2 0.17,-0.37 0.37,-0.37zm13.47 -6.69c1.49,0 2.7,1.21 2.7,2.7 0,1.49 -1.21,2.7 -2.7,2.7 -1.49,0 -2.69,-1.21 -2.69,-2.7 0,-1.49 1.2,-2.7 2.69,-2.7zm-8.88 -28.51c2.37,0 4.29,1.93 4.29,4.3 0,2.37 -1.92,4.29 -4.29,4.29 -2.38,0 -4.3,-1.92 -4.3,-4.29 0,-2.37 1.92,-4.3 4.3,-4.3z"/>
  <g id="_2096424354624">
   <path class="fil18" d="M874.6 2511.87l-12.29 12.29 -4.93 0c-0.45,0 -0.88,0.09 -1.27,0.26 -0.4,0.17 -0.77,0.42 -1.08,0.72 -0.31,0.31 -0.56,0.68 -0.73,1.09 -0.16,0.39 -0.25,0.82 -0.25,1.27 0,0.45 0.09,0.88 0.25,1.27 0.17,0.41 0.42,0.78 0.73,1.09 0.31,0.31 0.68,0.56 1.08,0.73 0.39,0.16 0.82,0.25 1.27,0.25l6.32 0c0.23,0 0.46,-0.02 0.67,-0.07 0.22,-0.04 0.43,-0.11 0.64,-0.2 0.21,-0.09 0.41,-0.2 0.59,-0.33 0.19,-0.13 0.36,-0.28 0.52,-0.44l0.48 -0.51 0.01 0.01 11.71 -11.71 4.93 0c0.91,0 1.75,-0.37 2.35,-0.98 0.61,-0.6 0.98,-1.44 0.98,-2.35 0,-0.92 -0.37,-1.76 -0.98,-2.36 -0.6,-0.61 -1.44,-0.98 -2.35,-0.98l-6.32 0c-0.22,0 -0.44,0.02 -0.64,0.06 -0.22,0.04 -0.42,0.11 -0.62,0.18 -0.2,0.09 -0.39,0.19 -0.57,0.31 -0.16,0.1 -0.31,0.22 -0.45,0.36l-0.05 0.04z"/>
   <path class="fil18" d="M864.62 2524.3l0 -11.65c0,-1.29 1.06,-2.35 2.35,-2.35l0.01 0c1.29,0 2.35,1.06 2.35,2.35l0 11.65c0,1.3 -1.06,2.36 -2.35,2.36l-0.01 0c-1.29,0 -2.35,-1.06 -2.35,-2.36z"/>
   <path class="fil18" d="M866.97 2504.56c1.3,0 2.36,1.06 2.36,2.36 0,1.3 -1.06,2.35 -2.36,2.35 -1.3,0 -2.35,-1.05 -2.35,-2.35 0,-1.3 1.05,-2.36 2.35,-2.36z"/>
   <g>
    <polygon class="fil18" points="855.66,2489.72 862.38,2477.62 869.1,2489.72 "/>
    <polygon class="fil18" points="871.53,2477.62 878.25,2489.72 884.97,2477.62 "/>
   </g>
   <path class="fil18" d="M889.35 2496.46l-38.07 0c-0.34,0 -0.67,0.07 -0.97,0.2 -0.31,0.13 -0.59,0.32 -0.82,0.55 -0.24,0.24 -0.43,0.52 -0.56,0.83 -0.12,0.3 -0.19,0.62 -0.19,0.97l0 38.06c0,0.35 0.07,0.68 0.19,0.97 0.13,0.31 0.32,0.59 0.56,0.83 0.23,0.24 0.51,0.43 0.82,0.55 0.3,0.13 0.63,0.2 0.97,0.2l38.07 0c0.34,0 0.67,-0.07 0.97,-0.2 0.31,-0.12 0.59,-0.31 0.83,-0.55 0.23,-0.24 0.42,-0.52 0.55,-0.83 0.12,-0.29 0.19,-0.62 0.19,-0.97l0 -38.06c0,-0.35 -0.07,-0.67 -0.19,-0.97 -0.13,-0.31 -0.32,-0.59 -0.55,-0.83 -0.24,-0.23 -0.52,-0.42 -0.83,-0.55 -0.3,-0.13 -0.63,-0.2 -0.97,-0.2zm-37.25 2.7l37.14 0 0 37.76 -37.85 0 0 -37.76 0.71 0z"/>
  </g>
  <g id="_2096424352320">
   <path class="fil19" d="M763.22 1008.17l-16.02 16.03 -6.42 0c-0.59,0 -1.15,0.11 -1.66,0.32 -0.53,0.23 -1.01,0.55 -1.41,0.95 -0.41,0.41 -0.73,0.89 -0.95,1.42 -0.22,0.51 -0.33,1.07 -0.33,1.66 0,0.58 0.11,1.14 0.33,1.65 0.22,0.54 0.54,1.02 0.95,1.42 0.4,0.4 0.88,0.73 1.41,0.95 0.51,0.21 1.07,0.33 1.66,0.33l8.23 0c0.31,0 0.6,-0.03 0.88,-0.09 0.28,-0.06 0.56,-0.15 0.83,-0.26 0.28,-0.12 0.54,-0.27 0.77,-0.43 0.24,-0.17 0.47,-0.36 0.67,-0.58l0.63 -0.66 0.01 0.02 15.27 -15.27 6.42 0c1.2,0 2.29,-0.49 3.07,-1.28 0.79,-0.79 1.28,-1.87 1.28,-3.07 0,-1.2 -0.49,-2.28 -1.28,-3.07 -0.78,-0.79 -1.87,-1.28 -3.07,-1.28l-8.23 0c-0.29,0 -0.57,0.03 -0.84,0.08 -0.28,0.06 -0.55,0.14 -0.8,0.24 -0.26,0.11 -0.51,0.24 -0.75,0.39 -0.21,0.14 -0.41,0.3 -0.59,0.47l-0.06 0.06z"/>
   <path class="fil19" d="M750.21 1024.38l0 -15.19c0,-1.69 1.38,-3.07 3.07,-3.07l0 0c1.69,0 3.07,1.38 3.07,3.07l0 15.19c0,1.68 -1.38,3.06 -3.07,3.06l0 0c-1.69,0 -3.07,-1.38 -3.07,-3.06z"/>
   <path class="fil19" d="M753.28 998.64c1.69,0 3.07,1.38 3.07,3.07 0,1.7 -1.38,3.07 -3.07,3.07 -1.7,0 -3.07,-1.37 -3.07,-3.07 0,-1.69 1.37,-3.07 3.07,-3.07z"/>
   <g>
    <polygon class="fil19" points="738.53,979.3 747.29,963.51 756.05,979.3 "/>
    <polygon class="fil19" points="759.22,963.51 767.98,979.3 776.74,963.51 "/>
   </g>
   <path class="fil19" d="M782.45 988.09l-49.63 0c-0.45,0 -0.87,0.09 -1.26,0.25 -0.41,0.16 -0.77,0.41 -1.08,0.72 -0.31,0.31 -0.55,0.67 -0.72,1.08 -0.16,0.39 -0.25,0.81 -0.25,1.26l0 49.63c0,0.44 0.09,0.87 0.25,1.26 0.17,0.4 0.41,0.77 0.72,1.08 0.31,0.31 0.67,0.55 1.08,0.72 0.39,0.16 0.81,0.25 1.26,0.25l49.63 0c0.45,0 0.87,-0.09 1.26,-0.25 0.41,-0.17 0.77,-0.41 1.08,-0.72 0.31,-0.31 0.55,-0.68 0.72,-1.08 0.16,-0.39 0.25,-0.82 0.25,-1.26l0 -49.63c0,-0.45 -0.09,-0.87 -0.25,-1.26 -0.17,-0.41 -0.41,-0.77 -0.72,-1.08 -0.31,-0.31 -0.67,-0.56 -1.08,-0.72 -0.39,-0.16 -0.81,-0.25 -1.26,-0.25zm-48.57 3.51l48.42 0 0 49.23 -49.33 0 0 -49.23 0.91 0z"/>
  </g>
  <g id="_2096424351936">
   <path class="fil0" d="M1011.56 1177.39l-5.77 0 0 3.47 5.72 0c0.75,0 1.49,-0.12 2.04,-0.33 0.86,-0.31 1.55,-0.76 2.1,-1.47 0.18,-0.22 0.33,-0.47 0.46,-0.73 0.13,-0.25 0.24,-0.55 0.33,-0.85 0.13,-0.47 0.17,-0.9 0.17,-1.34l0 -0.7c0,-0.62 -0.32,-1.44 -0.56,-1.84 -0.14,-0.24 -0.31,-0.49 -0.51,-0.69 -0.07,-0.07 -0.07,-0.1 -0.13,-0.16 -0.15,-0.16 -0.65,-0.56 -0.83,-0.67 -0.14,-0.08 -0.25,-0.14 -0.39,-0.22 -0.12,-0.07 -0.24,-0.15 -0.37,-0.23 -0.13,-0.08 -0.25,-0.14 -0.38,-0.22 -0.27,-0.16 -0.5,-0.3 -0.76,-0.45l-3.78 -2.25c-0.13,-0.08 -0.24,-0.14 -0.36,-0.21 -0.37,-0.25 -0.77,-0.46 -1.14,-0.68l-2.26 -1.34c-0.75,-0.42 -1.54,-0.91 -2.28,-1.36l-0.54 -0.32c-0.32,-0.19 -0.66,-0.36 -0.96,-0.57l-2.26 -1.34c-0.13,-0.07 -0.25,-0.15 -0.38,-0.23l-1.9 -1.12c-0.26,-0.16 -0.49,-0.29 -0.75,-0.44l-0.75 -0.45c-0.49,-0.33 -1.03,-0.59 -1.51,-0.91 0,-0.68 0.07,-2.36 -0.1,-2.9 -0.24,-0.75 -0.65,-1.29 -1.21,-1.79 -0.06,-0.06 -0.14,-0.11 -0.21,-0.17 -0.51,-0.38 -0.64,-0.39 -1.18,-0.68 -1.93,-1.05 -1.91,-4.27 0.47,-5.06 0.46,-0.16 0.94,-0.19 1.42,-0.1 0.49,0.1 0.97,0.28 1.33,0.6l0.42 0.45c0.25,0.33 0.38,0.77 0.46,1.2 0.1,0.64 0.11,1.13 0.59,1.61 0.63,0.64 1.62,0.45 2.23,-0.15 0.72,-0.72 0.6,-1.87 0.34,-2.76 -0.06,-0.18 -0.13,-0.35 -0.19,-0.52 -0.13,-0.34 -0.3,-0.66 -0.48,-0.96 -0.09,-0.16 -0.19,-0.29 -0.3,-0.44 -0.38,-0.56 -0.9,-1.06 -1.46,-1.43 -1.24,-0.82 -2.27,-1.06 -3.79,-1.06 -0.78,0 -1.46,0.15 -2.14,0.44 -0.41,0.18 -0.79,0.42 -1.15,0.69l-0.6 0.51 -0.5 0.6c-0.12,0.16 -0.2,0.26 -0.3,0.44 -0.27,0.45 -0.29,0.5 -0.52,0.95 -0.25,0.51 -0.6,1.6 -0.6,2.34 0,1.36 0.26,2.38 0.89,3.43l0.28 0.41c0.11,0.15 0.21,0.22 0.32,0.36 0.29,0.34 0.73,0.66 1.1,0.92l0.41 0.28c0.26,0.17 0.56,0.36 0.78,0.58 0.24,0.24 0.48,0.5 0.48,0.89l0 1.29c0,0.08 -0.27,0.21 -0.35,0.25l-6.17 3.64c-0.13,0.08 -0.25,0.15 -0.38,0.23 -0.08,0.04 -0.11,0.06 -0.18,0.11l-0.6 0.35c-0.12,0.07 -0.25,0.14 -0.38,0.22 -0.08,0.05 -0.12,0.08 -0.19,0.12l-0.98 0.58c-0.13,0.07 -0.25,0.14 -0.38,0.22l-2.72 1.6c-0.26,0.16 -0.49,0.29 -0.76,0.45l-1.74 1.02c-0.8,0.48 -2.13,1.3 -2.91,1.72 -0.14,0.08 -0.23,0.15 -0.37,0.23l-2.32 1.36c-0.45,0.27 -0.89,0.53 -1.26,0.9 -0.84,0.82 -1.32,2.13 -1.32,3.31 0,0.98 0.12,1.8 0.67,2.61 0.23,0.35 0.47,0.69 0.79,0.97 0.97,0.85 2.13,1.26 3.43,1.26l5.92 0 0 -3.47 -5.97 0c-0.68,0 -1.32,-0.68 -1.32,-1.35 0,-0.53 0.17,-0.87 0.61,-1.15 0.41,-0.26 0.91,-0.52 1.33,-0.78l3.34 -1.97c0.07,-0.03 0.11,-0.05 0.17,-0.09 0.06,-0.04 0.09,-0.06 0.16,-0.1l3.68 -2.16c0.68,-0.43 1.62,-0.94 2.34,-1.37 0.22,-0.14 0.43,-0.26 0.66,-0.39 0.22,-0.14 0.46,-0.26 0.68,-0.4l2.66 -1.57c0.25,-0.13 0.43,-0.26 0.67,-0.39 0.12,-0.06 0.21,-0.13 0.33,-0.19l2 -1.18c0.12,-0.07 0.23,-0.13 0.34,-0.2l1.34 -0.79c0.08,-0.05 0.62,-0.38 0.67,-0.38l0.99 0.58c0.14,0.08 0.21,0.13 0.33,0.2 0.22,0.13 0.44,0.25 0.67,0.39l1.34 0.79c0.11,0.07 0.22,0.12 0.33,0.19l3.33 1.96c0.52,0.31 1.51,0.91 2,1.17 0.13,0.07 0.22,0.15 0.35,0.21l7.35 4.33c0.12,0.07 0.22,0.13 0.34,0.19l0.66 0.39c0.11,0.07 0.21,0.13 0.33,0.2l1.34 0.79c0.39,0.21 1.01,0.54 1.25,0.87 0.72,0.99 -0.05,2.2 -1.14,2.2z"/>
   <path class="fil0" d="M981.4 1174.96l21.39 0c0.63,0 1.14,0.51 1.14,1.13l0 18.01c0,0.62 -0.51,1.14 -1.14,1.14l-21.39 0c-0.62,0 -1.14,-0.52 -1.14,-1.14l0 -18.01c0,-0.62 0.52,-1.13 1.14,-1.13z"/>
  </g>
 </g>
</svg>
