<?xml version="1.0" encoding="UTF-8"?>
<!DOCTYPE svg PUBLIC "-//W3C//DTD SVG 1.1//EN" "http://www.w3.org/Graphics/SVG/1.1/DTD/svg11.dtd">
<!-- Creator: CorelDRAW 2018 (64-Bit) -->
<svg xmlns="http://www.w3.org/2000/svg" xml:space="preserve" width="2550px" height="3300px" version="1.1" style="shape-rendering:geometricPrecision; text-rendering:geometricPrecision; image-rendering:optimizeQuality; fill-rule:evenodd; clip-rule:evenodd"
viewBox="0 0 2550 3300"
 xmlns:xlink="http://www.w3.org/1999/xlink">
 <defs>
  <style type="text/css">
   <![CDATA[
    .str0 {stroke:#FEFEFE;stroke-width:2.36;stroke-miterlimit:2.61313}
    .str1 {stroke:#373435;stroke-width:2.36;stroke-miterlimit:2.61313}
    .str2 {stroke:#ED3237;stroke-width:2.36;stroke-miterlimit:2.61313}
    .str43 {stroke:black;stroke-width:1.98;stroke-linecap:round;stroke-linejoin:round;stroke-miterlimit:2.61313}
    .str42 {stroke:black;stroke-width:1.98;stroke-linecap:round;stroke-linejoin:round;stroke-miterlimit:2.61313}
    .str41 {stroke:black;stroke-width:1.98;stroke-linecap:round;stroke-linejoin:round;stroke-miterlimit:2.61313}
    .str15 {stroke:black;stroke-width:1.98;stroke-linecap:round;stroke-linejoin:round;stroke-miterlimit:2.61313}
    .str39 {stroke:black;stroke-width:1.98;stroke-linecap:round;stroke-linejoin:round;stroke-miterlimit:2.61313}
    .str3 {stroke:black;stroke-width:1.98;stroke-linecap:round;stroke-linejoin:round;stroke-miterlimit:2.61313}
    .str11 {stroke:black;stroke-width:1.98;stroke-linecap:round;stroke-linejoin:round;stroke-miterlimit:2.61313}
    .str8 {stroke:black;stroke-width:1.98;stroke-linecap:round;stroke-linejoin:round;stroke-miterlimit:2.61313}
    .str12 {stroke:black;stroke-width:1.98;stroke-linecap:round;stroke-linejoin:round;stroke-miterlimit:2.61313}
    .str9 {stroke:black;stroke-width:1.98;stroke-linecap:round;stroke-linejoin:round;stroke-miterlimit:2.61313}
    .str6 {stroke:black;stroke-width:1.98;stroke-linecap:round;stroke-linejoin:round;stroke-miterlimit:2.61313}
    .str10 {stroke:black;stroke-width:1.98;stroke-linecap:round;stroke-linejoin:round;stroke-miterlimit:2.61313}
    .str7 {stroke:black;stroke-width:1.98;stroke-linecap:round;stroke-linejoin:round;stroke-miterlimit:2.61313}
    .str4 {stroke:black;stroke-width:1.98;stroke-linecap:round;stroke-linejoin:round;stroke-miterlimit:2.61313}
    .str5 {stroke:black;stroke-width:1.98;stroke-linecap:round;stroke-linejoin:round;stroke-miterlimit:2.61313}
    .str36 {stroke:black;stroke-width:1.98;stroke-linecap:round;stroke-linejoin:round;stroke-miterlimit:2.61313}
    .str38 {stroke:black;stroke-width:1.98;stroke-linecap:round;stroke-linejoin:round;stroke-miterlimit:2.61313}
    .str34 {stroke:black;stroke-width:1.98;stroke-linecap:round;stroke-linejoin:round;stroke-miterlimit:2.61313}
    .str35 {stroke:black;stroke-width:1.98;stroke-linecap:round;stroke-linejoin:round;stroke-miterlimit:2.61313}
    .str14 {stroke:black;stroke-width:1.98;stroke-linecap:round;stroke-linejoin:round;stroke-miterlimit:2.61313}
    .str40 {stroke:black;stroke-width:1.98;stroke-linecap:round;stroke-linejoin:round;stroke-miterlimit:2.61313}
    .str24 {stroke:black;stroke-width:1.98;stroke-linecap:round;stroke-linejoin:round;stroke-miterlimit:2.61313}
    .str32 {stroke:black;stroke-width:1.98;stroke-linecap:round;stroke-linejoin:round;stroke-miterlimit:2.61313}
    .str29 {stroke:black;stroke-width:1.98;stroke-linecap:round;stroke-linejoin:round;stroke-miterlimit:2.61313}
    .str33 {stroke:black;stroke-width:1.98;stroke-linecap:round;stroke-linejoin:round;stroke-miterlimit:2.61313}
    .str30 {stroke:black;stroke-width:1.98;stroke-linecap:round;stroke-linejoin:round;stroke-miterlimit:2.61313}
    .str27 {stroke:black;stroke-width:1.98;stroke-linecap:round;stroke-linejoin:round;stroke-miterlimit:2.61313}
    .str31 {stroke:black;stroke-width:1.98;stroke-linecap:round;stroke-linejoin:round;stroke-miterlimit:2.61313}
    .str28 {stroke:black;stroke-width:1.98;stroke-linecap:round;stroke-linejoin:round;stroke-miterlimit:2.61313}
    .str25 {stroke:black;stroke-width:1.98;stroke-linecap:round;stroke-linejoin:round;stroke-miterlimit:2.61313}
    .str26 {stroke:black;stroke-width:1.98;stroke-linecap:round;stroke-linejoin:round;stroke-miterlimit:2.61313}
    .str22 {stroke:black;stroke-width:1.98;stroke-linecap:round;stroke-linejoin:round;stroke-miterlimit:2.61313}
    .str21 {stroke:black;stroke-width:1.98;stroke-linecap:round;stroke-linejoin:round;stroke-miterlimit:2.61313}
    .str18 {stroke:black;stroke-width:1.98;stroke-linecap:round;stroke-linejoin:round;stroke-miterlimit:2.61313}
    .str13 {stroke:black;stroke-width:1.98;stroke-linecap:round;stroke-linejoin:round;stroke-miterlimit:2.61313}
    .str37 {stroke:black;stroke-width:1.98;stroke-linecap:round;stroke-linejoin:round;stroke-miterlimit:2.61313}
    .str44 {stroke:black;stroke-width:1.98;stroke-linecap:round;stroke-linejoin:round;stroke-miterlimit:2.61313}
    .str19 {stroke:black;stroke-width:1.98;stroke-linecap:round;stroke-linejoin:round;stroke-miterlimit:2.61313}
    .str16 {stroke:black;stroke-width:1.98;stroke-linecap:round;stroke-linejoin:round;stroke-miterlimit:2.61313}
    .str23 {stroke:black;stroke-width:1.98;stroke-linecap:round;stroke-linejoin:round;stroke-miterlimit:2.61313}
    .str20 {stroke:black;stroke-width:1.98;stroke-linecap:round;stroke-linejoin:round;stroke-miterlimit:2.61313}
    .str17 {stroke:black;stroke-width:1.98;stroke-linecap:round;stroke-linejoin:round;stroke-miterlimit:2.61313}
    .fil8 {fill:none}
    .fil7 {fill:none;fill-rule:nonzero}
    .fil2 {fill:#FEFEFE}
    .fil0 {fill:#D2D3D5}
    .fil4 {fill:#A9ABAE}
    .fil1 {fill:#A98F71}
    .fil9 {fill:#ED2F59}
    .fil3 {fill:#C2AA7B}
    .fil11 {fill:#5E4F3E}
    .fil5 {fill:#71A72B}
    .fil10 {fill:#FEFEFE;fill-rule:nonzero}
    .fil6 {fill:black;fill-rule:nonzero}
   ]]>
  </style>
 </defs>
 <g id="Layer_x0020_1">
  <metadata id="CorelCorpID_0Corel-Layer"/>
  <polygon class="fil0 str0" points="1175.34,1005.87 1334.56,1005.87 1334.56,1000.65 2195.88,1000.65 2195.88,711.66 1222.7,711.66 1222.7,123.47 1182.43,123.47 1182.43,232.65 1179.93,232.65 1179.93,654.97 1175.34,654.97 1175.34,711.66 "/>
  <polygon class="fil1 str1" points="1064.08,654.97 1179.93,654.97 1179.93,232.65 1064.08,232.65 "/>
  <polygon class="fil2 str0" points="1114.93,568.65 1179.93,568.65 1179.93,449.65 1114.93,449.65 "/>
  <path class="fil3 str0" d="M423.07 123.47l477.27 0 163.74 0 118.35 0 0 67.97 0 41.21 -2.5 0 0 217 -48.18 0 -16.82 0 0 119 65.02 0.08 -0.02 86.24 -4.98 0 0.39 50.02 0 6.67 0 14.75 0 22.03 0 33.55 0 87.62 0 1.86 -111.66 0 0 135.87 -215.04 0 -98.76 1.11 -326.81 0 0 -136.72 0 -108.13 59.93 0c0,-25.28 0,-50.55 0,-75.83l0 -31.05 -59.93 0 0 -100.01 0 -43.32 0 -389.92zm326.6 538.69l101.04 0 0 209.38 -101.04 0 0 -209.38z"/>
  <polygon class="fil0 str0" points="749.88,1008.45 749.88,1133.33 749.88,1293.97 423.07,1293.97 423.07,1008.45 "/>
  <polygon class="fil0 str0" points="793.07,2483.26 859.57,2483.26 859.57,2651.97 422.57,2651.97 422.57,2483.26 "/>
  <polygon class="fil0 str0" points="749.88,1293.97 749.88,1951.39 862.76,2075.47 863.57,2075.47 863.57,2394.47 793.07,2394.47 422.57,2394.47 422.57,2097.93 422.57,2075.47 423.07,2075.47 423.07,1293.97 "/>
  <polygon class="fil0 str0" points="859.57,2651.97 422.57,2651.97 422.57,2742.47 422.57,2748.47 422.57,2937.16 638.06,2937.16 638.06,3002.55 852.07,3002.55 852.07,2937.16 961.57,2937.16 961.57,2748.47 1071.58,2748.47 1071.58,2651.97 961.57,2651.97 894.04,2651.97 "/>
  <polygon class="fil0 str0" points="761.25,2483.26 422.57,2483.26 422.57,2394.47 761.25,2394.47 "/>
  <polygon class="fil0 str0" points="966.31,2556.53 1055.81,2556.53 1055.81,2624.65 966.31,2624.65 "/>
  <polygon class="fil0 str0" points="2195.88,1000.65 2195.88,1118.14 2195.88,1118.37 2195.88,1122.47 2195.88,1126.6 2195.88,1130.78 2195.88,1135.03 2195.88,1143.76 2195.88,1148.27 2195.88,1152.91 2195.88,1157.68 2195.88,1162.59 2195.88,1167.66 2195.88,1172.91 2195.88,1178.34 2195.88,1183.98 2195.88,1189.83 2195.88,1195.91 2195.88,1202.23 2195.88,1203.77 2195.88,1254.44 2195.88,1298.75 2195.88,1349.69 2195.88,1350.32 2195.88,1350.47 2195.88,1350.92 2195.88,1351.5 2195.88,1352.02 2195.88,1352.06 2195.88,1352.59 2195.88,1353.1 2195.88,1353.59 2195.88,1353.64 2195.88,1354.07 2195.88,1354.52 2195.88,1354.96 2195.88,1355.33 2195.88,1355.38 2195.88,1355.79 2195.88,1356.18 2195.88,1356.56 2195.88,1356.93 2195.88,1357.09 2195.88,1357.29 2195.88,1357.63 2195.88,1357.97 2195.88,1358.3 2195.88,1358.62 2195.88,1358.92 2195.88,1358.94 2195.88,1359.26 2195.88,1359.56 2195.88,1359.87 2195.88,1360.18 2195.88,1360.48 2195.88,1360.79 2195.88,1360.83 2195.88,1361.09 2195.88,1361.4 2195.88,1361.71 2195.88,1362.03 2195.88,1362.35 2195.88,1362.68 2195.88,1362.82 2195.88,1363.02 2195.88,1363.37 2195.88,1363.72 2195.88,1364.09 2195.88,1364.47 2195.88,1364.86 2195.88,1364.89 2195.88,1365.27 2195.88,1365.69 2195.88,1366.12 2195.88,1366.58 2195.88,1367.04 2195.88,1367.05 2195.88,1367.54 2195.88,1368.05 2195.88,1368.58 2195.88,1369.14 2195.88,1369.28 2195.88,1369.71 2195.88,1370.31 2195.88,1370.94 2195.88,1371.6 2195.88,1371.61 2195.88,1372.28 2195.88,1372.99 2195.88,1373.73 2195.88,1374.03 2195.88,1374.49 2195.88,1375.3 2195.88,1376.13 2195.88,1376.55 2195.88,1377 2195.88,1377.9 2195.88,1378.84 2195.88,1379.16 2195.88,1379.81 2195.88,1380.82 2195.88,1381.87 2195.88,1433.97 1334.56,1433.97 1272.99,1433.97 1272.99,1311.47 1117.07,1311.47 1018.07,1311.47 1018.07,1136.47 1117.07,1136.47 1117.07,1118.14 1282.68,1118.14 1282.68,1046.27 1282.68,1005.87 1334.56,1005.87 1334.56,1000.65 "/>
  <polygon class="fil0 str0" points="1334.56,1000.65 1334.56,990.45 1334.56,824.4 2195.88,824.4 2195.88,1000.65 "/>
  <polygon class="fil0 str0" points="963.58,1540.97 861.47,1540.97 861.47,1433.97 850.07,1433.97 850.07,1540.97 850.07,1549.81 850.07,1906.01 963.58,2030.76 963.58,2298.47 1103.96,2413.69 1103.96,2511.85 1272.99,2511.85 1272.99,2298.47 1272.99,1906.01 1272.99,1540.97 1272.99,1433.97 1100.08,1433.97 963.58,1433.97 "/>
  <polygon class="fil0 str0" points="1103.96,2937.16 1328.95,2937.16 1390.52,2937.16 1390.52,2929.39 2172.42,2929.39 2195.88,2929.39 2195.88,2748.47 2195.88,1434.92 1839.51,1434.92 1839.51,1433.97 1272.99,1433.97 1272.99,2511.85 1238.64,2511.86 1238.64,2680.9 1103.96,2680.9 1103.96,2801.36 1103.96,2801.36 "/>
  <polygon class="fil0 str0" points="848.64,1007.34 980.74,1007.34 1002.09,1007.34 1002.09,1110.22 980.74,1110.22 980.74,1131.06 848.64,1131.06 848.64,1110.22 "/>
  <polygon class="fil0 str0" points="817.2,1180.02 884.38,1180.02 884.38,1146.68 817.2,1146.68 "/>
  <polygon class="fil0 str0" points="850.79,1306.06 921.37,1306.06 921.37,1220.12 850.79,1220.12 "/>
  <polygon class="fil0 str0" points="1103.96,2511.85 1171.3,2511.85 1171.3,2613.56 1103.96,2613.56 "/>
  <polygon class="fil0 str0" points="1238.64,2613.56 1171.3,2613.56 1171.3,2511.86 1238.64,2511.86 "/>
  <polygon class="fil0 str0" points="961.57,2937.16 1103.96,2937.16 1103.96,2748.47 1103.96,2651.97 1071.58,2651.97 1071.58,2748.47 961.57,2748.47 "/>
  <polygon class="fil4 str2" points="1175.34,871.47 1063.68,871.47 1063.68,1012.97 1175.34,1012.97 "/>
  <polygon class="fil0 str0" points="1063.68,871.47 1175.34,871.47 1175.34,1012.97 1063.68,1012.97 "/>
  <polygon class="fil0 str0" points="1117.07,1118.14 1282.68,1118.14 1282.68,1005.87 1175.34,1005.87 1175.34,1012.97 1117.07,1012.97 "/>
  <polygon class="fil0 str0" points="1002.09,1136.47 1117.07,1136.47 1117.07,1012.97 1064.18,1012.97 1063.68,1007.34 1002.09,1007.34 "/>
  <polygon class="fil0 str0" points="1238.64,2613.56 1171.3,2613.56 1171.3,2680.9 1238.64,2680.9 "/>
  <polygon class="fil0 str0" points="1103.96,2613.56 1171.3,2613.56 1171.3,2680.9 1103.96,2680.9 "/>
  <polygon class="fil0 str0" points="1069.43,1069.12 1002.09,1069.12 1002.09,1136.47 1069.43,1136.47 "/>
  <polygon class="fil5 str0" points="1174.95,722.32 1107.61,722.32 1107.61,789.66 1174.95,789.66 "/>
  <polygon class="fil5 str0" points="1174.95,722.32 1107.61,722.32 1107.61,654.97 1174.95,654.97 "/>
  <path class="fil6" d="M837.8 816.19l0 7.24 0 2.57c0,0.55 -0.45,1 -1,1l-4.5 0 0 32.79 0 0.02c0,0.55 -0.45,1 -1,1l-0.02 0 -59.95 0 -0.03 0c-0.55,0 -1,-0.45 -1,-1l0 -0.02 0 -32.79 -4.5 0c-0.55,0 -1,-0.45 -1,-1l0 -44.91 0 -27.27 0 -8.09c14.89,12.39 27.98,23.34 40.89,34.34 10.78,9.18 21.2,18.19 32.11,27.8l0 8.32zm-28.5 -15.8l1.08 -0.89 -1.08 0 0 0.89zm3.51 -2.89l1.86 -1.54 -4.01 -3.46 -1.36 0 0 5 3.51 0zm0.7 2l-4.21 3.47 0 1.53 6.5 0 0 -5 -2.29 0zm-33.05 35.5l4.34 3.8 0 -3.8 -4.34 0zm6.34 3.89l4.72 -3.89 -4.72 0 0 3.89zm6.5 -2.77l-4.72 3.88 4.72 0 0 -3.88zm-10.16 3.88l-4.34 -3.8 0 3.8 4.34 0zm-9.84 18.31l8.88 0 16.12 0 0 -9.94 0 0 -0.01 0.01 -0.01 0 -0.01 0 -0.08 0.04 0 0 -0.05 0.02 0 0 -0.03 0.01 -0.01 0.01 -0.01 0 -0.01 0 -0.01 0 -0.01 0.01 -0.01 0 0 0 -0.03 0.01 -0.02 0 0 0 -0.02 0.01 0 0 -0.01 0 -0.02 0 0 0 -0.01 0 -0.01 0 -0.01 0 -0.02 0.01 -0.02 0 0 0 -0.01 0 -0.02 0 0 0 -0.02 0 0 0 -0.01 0 -0.02 0 -0.01 0 -0.02 0 -1.44 0 -0.02 0 -0.01 0c-0.55,0 -1,-0.45 -1,-1l0 -0.02 0 -4.48 -1 0c-0.55,0 -1,-0.45 -1,-1l-7.47 0 -0.03 0 -0.03 0 -6.97 0c0,0.55 -0.45,1 -1,1l-1 0 0 4.48 0 0.02c0,0.54 -0.43,0.99 -0.97,1l-0.03 0 -0.02 0 -0.01 0 -1.47 0 -0.5 0 -0.5 0 0 7.76 0 2.05zm27 0l2 0 0 -16.28 0 -56.68 -0.63 -0.54 -1.37 -1.16 0 58.35 0 0.03 0 16.28zm4 0l13.97 0 11.03 0 0 -9.81 0 -0.16c-0.02,0.01 -0.03,0.06 -0.05,0.16l-0.82 0 0 -0.01 -0.13 0.01 -0.98 0 -0.02 0 -0.03 0c-0.53,-0.01 -0.97,-0.46 -0.97,-1l0 -0.02 0 -4.48 -1.5 0c-0.55,0 -1,-0.45 -1,-1l-6.97 0 -0.03 0 -0.03 0 -7.47 0c0,0.55 -0.45,1 -1,1l-0.29 0 0 4.5c0,0.55 -0.61,1 -1.35,1 -0.07,0 -0.14,0 -0.21,-0.01 -0.05,0.01 -0.1,0.01 -0.15,0.01l-1.47 0 -0.01 0 -0.02 0 -0.02 0 -0.01 0 0 0 -0.02 0 0 0 -0.02 0 -0.01 0 0 0 -0.02 0 -0.02 -0.01 -0.01 0 0 0 -0.02 0 0 0 -0.02 0 -0.01 0 0 0 -0.02 -0.01 0 0 -0.01 0 -0.04 -0.01 0 0 -0.01 0 -0.01 -0.01 -0.01 0 -0.01 0 -0.01 0 -0.01 -0.01 -0.03 -0.01 0 0 -0.04 -0.02 -0.01 0 -0.08 -0.04 -0.01 0 0 0 -0.02 -0.01 0 0 0 9.94zm-17.5 -86.08l0 3.77 4.48 0 -4.48 -3.77zm0 5.77l0 5.5 6.5 0 0 -5.5 -6.5 0zm0 7.5l0 5 6.5 0 0 -5 -6.5 0zm0 7l0 5 6.5 0 0 -5 -6.5 0zm0 7l0 5 6.5 0 0 -5 -6.5 0zm0 7l0 5 6.5 0 0 -5 -6.5 0zm0 7l0 5.5 6.5 0 0 -5.5 -6.5 0zm0 7.5l0 5 6.5 0 0 -5 -6.5 0zm0 7l0 5 6.5 0 0 -5 -6.5 0zm-2 5l0 -5 -6 0 0 5 6 0zm0 -7l0 -5 -6 0 0 5 6 0zm0 -7l0 -5.5 -6 0 0 5.5 6 0zm0 -7.5l0 -5 -6 0 0 5 6 0zm0 -7l0 -5 -6 0 0 5 6 0zm0 -7l0 -5 -6 0 0 5 6 0zm0 -7l0 -5 -6 0 0 5 6 0zm0 -7l0 -5.5 -6 0 0 5.5 6 0zm0 -7.5l0 -5 -6 0 0 5 6 0zm31 64l0 -5 -6.5 0 0 5 6.5 0zm0 -7l0 -5 -6.5 0 0 5 6.5 0zm0 -7l0 -5 -6.5 0 0 5 6.5 0zm0 -7l0 -5.5 -6.5 0 0 5.5 6.5 0zm0 -7.5l0 -5 -6.5 0 0 5 6.5 0zm2 -12l0 5 6 0 0 -0.61 -5.04 -4.39 -0.96 0zm0 7l0 5 6 0 0 -5 -6 0zm0 7l0 5.5 6 0 0 -5.5 -6 0zm0 7.5l0 5 6 0 0 -5 -6 0zm0 7l0 5 6 0 0 -5 -6 0zm0 7l0 5 6 0 0 -5 -6 0zm-39 -69.49l0 3.49 4.16 0 -4.16 -3.49zm47.5 75.49l0 -34.93 -0.5 -0.44 0 6.85 0 0.02 0 0.03 0 7.45 0 0.02 0 0.03 0 6.94 0 0.03 0 0.03 0 6.95 0 0.02 0 0.03 0 6.95 0 0.02 0.5 0zm-56 -16l0 -66.59 -3.5 -2.92 0 69.51 3.5 0zm62 -13.66l0 13.66 3.5 0 0 -10.58 -3.5 -3.08z"/>
  <polyline class="fil7 str3" points="451.01,687.89 451.01,734.99 473.82,734.99 "/>
  <line class="fil7 str4" x1="451.01" y1="734.99" x2="424.73" y2= "734.99" />
  <line class="fil7 str5" x1="451.01" y1="730.03" x2="424.73" y2= "730.03" />
  <line class="fil7 str6" x1="451.01" y1="724.58" x2="424.73" y2= "724.58" />
  <line class="fil7 str7" x1="451.01" y1="719.12" x2="424.73" y2= "719.12" />
  <line class="fil7 str8" x1="451.01" y1="714.17" x2="424.73" y2= "714.17" />
  <line class="fil7 str9" x1="451.01" y1="708.71" x2="424.73" y2= "708.71" />
  <line class="fil7 str10" x1="451.01" y1="703.26" x2="424.73" y2= "703.26" />
  <line class="fil7 str11" x1="451.01" y1="698.3" x2="424.73" y2= "698.3" />
  <line class="fil7 str12" x1="451.01" y1="692.85" x2="424.73" y2= "692.85" />
  <line class="fil7 str13" x1="438.12" y1="687.89" x2="438.12" y2= "734.99" />
  <polyline class="fil7 str14" points="431.18,730.03 438.12,734.99 444.56,730.03 "/>
  <line class="fil7 str3" x1="451.01" y1="687.89" x2="424.73" y2= "687.89" />
  <polyline class="fil7 str15" points="450.02,686.9 450.02,735.98 474.81,735.98 "/>
  <line class="fil7 str16" x1="479.27" y1="740.44" x2="479.27" y2= "761.76" />
  <line class="fil7 str17" x1="473.82" y1="734.99" x2="473.82" y2= "761.76" />
  <line class="fil7 str18" x1="468.86" y1="734.99" x2="468.86" y2= "761.76" />
  <line class="fil7 str19" x1="463.4" y1="734.99" x2="463.4" y2= "761.76" />
  <line class="fil7 str20" x1="457.95" y1="734.99" x2="457.95" y2= "761.76" />
  <line class="fil7 str21" x1="452.99" y1="734.99" x2="452.99" y2= "761.76" />
  <polyline class="fil7 str22" points="452.99,748.38 484.23,748.38 479.27,743.42 "/>
  <path class="fil7 str17" d="M473.82 734.99l10.84 10.85m0 2.66l-0.43 0.87 0.43 -0.26"/>
  <line class="fil7 str23" x1="479.27" y1="753.33" x2="484.23" y2= "748.38" />
  <polygon class="fil8 str1" points="423.07,656.72 483,656.72 483,763.6 423.07,763.6 "/>
  <polyline class="fil7 str24" points="1141.21,494.78 1141.21,541.88 1164.01,541.88 "/>
  <line class="fil7 str25" x1="1141.21" y1="541.88" x2="1114.93" y2= "541.88" />
  <line class="fil7 str26" x1="1141.21" y1="536.92" x2="1114.93" y2= "536.92" />
  <line class="fil7 str27" x1="1141.21" y1="531.47" x2="1114.93" y2= "531.47" />
  <line class="fil7 str28" x1="1141.21" y1="526.01" x2="1114.93" y2= "526.01" />
  <line class="fil7 str29" x1="1141.21" y1="521.06" x2="1114.93" y2= "521.06" />
  <line class="fil7 str30" x1="1141.21" y1="515.6" x2="1114.93" y2= "515.6" />
  <line class="fil7 str31" x1="1141.21" y1="510.15" x2="1114.93" y2= "510.15" />
  <line class="fil7 str32" x1="1141.21" y1="505.19" x2="1114.93" y2= "505.19" />
  <line class="fil7 str33" x1="1141.21" y1="499.74" x2="1114.93" y2= "499.74" />
  <line class="fil7 str34" x1="1128.32" y1="494.78" x2="1128.32" y2= "541.88" />
  <polyline class="fil7 str35" points="1121.38,536.92 1128.32,541.88 1134.76,536.92 "/>
  <line class="fil7 str24" x1="1141.21" y1="494.78" x2="1114.93" y2= "494.78" />
  <polyline class="fil7 str36" points="1140.22,493.79 1140.22,542.87 1165.01,542.87 "/>
  <line class="fil7 str37" x1="1169.47" y1="547.33" x2="1169.47" y2= "568.65" />
  <line class="fil7 str38" x1="1164.01" y1="541.88" x2="1164.01" y2= "568.65" />
  <line class="fil7 str39" x1="1159.06" y1="541.88" x2="1159.06" y2= "568.65" />
  <line class="fil7 str40" x1="1153.6" y1="541.88" x2="1153.6" y2= "568.65" />
  <line class="fil7 str41" x1="1148.15" y1="541.88" x2="1148.15" y2= "568.65" />
  <line class="fil7 str42" x1="1143.19" y1="541.88" x2="1143.19" y2= "568.65" />
  <polyline class="fil7 str43" points="1143.19,555.26 1174.42,555.26 1169.47,550.31 "/>
  <path class="fil7 str38" d="M1164.01 541.88l10.85 10.84m0 2.67l-0.44 0.86 0.44 -0.26"/>
  <line class="fil7 str44" x1="1169.47" y1="560.22" x2="1174.42" y2= "555.26" />
  <polygon class="fil9 str0" points="483,695.79 571.91,695.79 602.64,763.6 602.64,1008.45 423.07,1008.45 423.07,763.6 483,763.6 "/>
  <polygon class="zhekas_icefil9 str0" points="456.08,527.74 491.22,527.74 491.22,593.03 456.08,593.03 "/>
  <path class="fil9 str0" d="M1144.6 330.31l0 37.64 -38.13 0 -20.41 80.98 -20.41 0c-5.47,-30.78 -16.25,-59.75 -31.36,-85.95l59.56 -32.67 50.75 0z"/>
  <path class="burger_time fil9 str0" d="M878.24 160.34l36.89 0 107.99 0 0 33.22 -67.17 83.74c-17.24,-12.14 -35.98,-22.34 -55.89,-30.25 -15.71,-6.24 -32.14,-11.06 -49.14,-14.29l27.32 -72.42z"/>
  <path class="best_shawarma fil9 str0" d="M1144.6 330.31l-50.75 0 -59.56 32.67c-19.55,-33.9 -46.37,-63.15 -78.34,-85.68l67.17 -83.74 0 -33.22 121.48 0 0 169.97z"/>
  <path class="redway fil9 str0" d="M712.37 160.34l165.87 0 -27.32 72.42c-16.58,-3.16 -33.69,-4.83 -51.2,-4.83 -18.84,0 -37.24,1.92 -54.99,5.56l-32.36 -73.15z"/>
  <path class="pappas_pizza fil9 str0" d="M573.84 160.34l138.53 0 32.36 73.15c-38.81,7.97 -74.58,24.19 -105.34,46.75l-65.55 -84.25 0 -35.65z"/>
  <path class="fil9 str0" d="M455.61 160.34l118.23 0 0 35.65 65.55 84.25c-28.97,21.23 -53.51,48.08 -71.98,78.92l-79.44 -16.28 0 -116.8 -32.36 0 0 -65.74z"/>
  <path class="pizzaro fil9 str0" d="M567.41 359.16c-16.29,27.19 -27.88,57.48 -33.62,89.77l-16.54 0 -61.64 0 -33.04 0 0 -108.83 33.04 0 0 -114.02 32.36 0 0 116.8 79.44 16.28z"/>
  <polygon class="fil9 str0" points="1106.95,367.95 1144.6,367.95 1144.6,330.31 1106.95,330.31 "/>
  <path class="fil10" d="M1036.63 242.47l5.86 0c1.17,0 2.03,0.05 2.6,0.14 0.58,0.1 1.09,0.31 1.54,0.61 0.45,0.31 0.82,0.71 1.13,1.22 0.3,0.51 0.45,1.09 0.45,1.72 0,0.68 -0.19,1.31 -0.56,1.88 -0.37,0.58 -0.87,1 -1.5,1.29 0.89,0.27 1.58,0.71 2.06,1.34 0.47,0.63 0.71,1.36 0.71,2.21 0,0.67 -0.15,1.32 -0.46,1.96 -0.31,0.63 -0.73,1.13 -1.27,1.51 -0.54,0.38 -1.2,0.61 -1.99,0.7 -0.49,0.05 -1.69,0.08 -3.58,0.1l-4.99 0 0 -14.68zm2.97 2.44l0 3.38 1.94 0c1.15,0 1.87,-0.01 2.15,-0.05 0.5,-0.06 0.9,-0.23 1.19,-0.52 0.29,-0.29 0.44,-0.67 0.44,-1.14 0,-0.46 -0.13,-0.82 -0.38,-1.11 -0.25,-0.28 -0.62,-0.45 -1.11,-0.51 -0.3,-0.03 -1.14,-0.05 -2.53,-0.05l-1.7 0zm0 5.82l0 3.94 2.74 0c1.07,0 1.75,-0.03 2.04,-0.09 0.44,-0.08 0.8,-0.28 1.07,-0.59 0.28,-0.31 0.42,-0.73 0.42,-1.25 0,-0.44 -0.11,-0.82 -0.32,-1.12 -0.21,-0.31 -0.52,-0.54 -0.93,-0.68 -0.4,-0.14 -1.28,-0.21 -2.63,-0.21l-2.39 0zm11.83 6.42l0 -14.68 10.86 0 0 2.48 -7.89 0 0 3.26 7.34 0 0 2.48 -7.34 0 0 3.98 8.18 0 0 2.48 -11.15 0zm12.89 -4.76l2.89 -0.28c0.18,0.96 0.52,1.67 1.05,2.12 0.53,0.46 1.25,0.68 2.15,0.68 0.95,0 1.66,-0.2 2.14,-0.6 0.49,-0.4 0.73,-0.87 0.73,-1.41 0,-0.35 -0.1,-0.65 -0.31,-0.89 -0.2,-0.25 -0.55,-0.46 -1.06,-0.63 -0.34,-0.13 -1.13,-0.34 -2.36,-0.65 -1.58,-0.39 -2.69,-0.88 -3.33,-1.46 -0.9,-0.81 -1.35,-1.79 -1.35,-2.96 0,-0.75 0.22,-1.45 0.64,-2.1 0.42,-0.65 1.03,-1.15 1.83,-1.49 0.79,-0.34 1.75,-0.51 2.87,-0.51 1.84,0 3.22,0.4 4.15,1.22 0.93,0.81 1.41,1.9 1.46,3.26l-2.97 0.11c-0.13,-0.76 -0.4,-1.3 -0.81,-1.64 -0.41,-0.33 -1.04,-0.49 -1.86,-0.49 -0.86,0 -1.53,0.17 -2.01,0.53 -0.31,0.23 -0.47,0.53 -0.47,0.91 0,0.35 0.15,0.65 0.44,0.9 0.38,0.31 1.28,0.64 2.72,0.98 1.44,0.34 2.5,0.7 3.19,1.06 0.69,0.36 1.23,0.86 1.62,1.49 0.39,0.63 0.58,1.41 0.58,2.34 0,0.84 -0.23,1.63 -0.7,2.36 -0.47,0.74 -1.13,1.28 -1.98,1.64 -0.86,0.36 -1.92,0.54 -3.19,0.54 -1.86,0 -3.28,-0.43 -4.28,-1.29 -0.99,-0.85 -1.58,-2.1 -1.78,-3.74zm17.75 4.76l0 -12.2 -4.34 0 0 -2.48 11.64 0 0 2.48 -4.32 0 0 12.2 -2.98 0zm-79.81 14.3l2.89 -0.29c0.17,0.97 0.52,1.67 1.05,2.13 0.53,0.45 1.24,0.68 2.14,0.68 0.95,0 1.67,-0.2 2.15,-0.61 0.48,-0.4 0.72,-0.87 0.72,-1.41 0,-0.35 -0.1,-0.64 -0.3,-0.89 -0.2,-0.24 -0.56,-0.45 -1.06,-0.63 -0.35,-0.12 -1.13,-0.34 -2.36,-0.64 -1.58,-0.4 -2.69,-0.88 -3.33,-1.46 -0.9,-0.81 -1.35,-1.8 -1.35,-2.96 0,-0.75 0.21,-1.46 0.63,-2.11 0.43,-0.65 1.03,-1.15 1.83,-1.49 0.8,-0.34 1.75,-0.51 2.88,-0.51 1.83,0 3.22,0.4 4.14,1.22 0.93,0.82 1.42,1.91 1.47,3.27l-2.98 0.1c-0.12,-0.76 -0.39,-1.3 -0.81,-1.63 -0.41,-0.33 -1.03,-0.5 -1.86,-0.5 -0.85,0 -1.52,0.18 -2,0.53 -0.31,0.23 -0.47,0.53 -0.47,0.92 0,0.35 0.15,0.64 0.44,0.89 0.37,0.32 1.28,0.64 2.72,0.99 1.43,0.33 2.5,0.69 3.18,1.05 0.69,0.37 1.23,0.86 1.62,1.49 0.39,0.64 0.59,1.42 0.59,2.34 0,0.84 -0.24,1.63 -0.7,2.37 -0.47,0.73 -1.13,1.28 -1.99,1.63 -0.85,0.36 -1.91,0.54 -3.19,0.54 -1.85,0 -3.28,-0.43 -4.27,-1.29 -1,-0.85 -1.59,-2.1 -1.78,-3.73zm14.45 4.75l0 -14.67 2.97 0 0 5.78 5.78 0 0 -5.78 2.97 0 0 14.67 -2.97 0 0 -6.41 -5.78 0 0 6.41 -2.97 0zm28.02 0l-3.2 0 -1.27 -3.34 -5.88 0 -1.22 3.34 -3.15 0 5.7 -14.67 3.14 0 5.88 14.67zm-5.43 -5.82l-2.04 -5.43 -1.98 5.43 4.02 0zm7.9 5.82l-3.45 -14.67 3.05 0 2.19 10.08 2.67 -10.08 3.54 0 2.56 10.25 2.23 -10.25 2.99 0 -3.54 14.67 -3.17 0 -2.9 -10.97 -2.91 10.97 -3.26 0zm29.42 0l-3.2 0 -1.27 -3.34 -5.88 0 -1.22 3.34 -3.15 0 5.7 -14.67 3.14 0 5.88 14.67zm-5.43 -5.82l-2.04 -5.43 -1.98 5.43 4.02 0zm7.01 5.82l0 -14.67 6.24 0c1.57,0 2.71,0.13 3.42,0.39 0.72,0.26 1.29,0.73 1.71,1.41 0.43,0.67 0.64,1.44 0.64,2.31 0,1.1 -0.32,2.01 -0.96,2.73 -0.65,0.72 -1.61,1.17 -2.9,1.35 0.64,0.38 1.17,0.79 1.58,1.23 0.42,0.45 0.98,1.25 1.68,2.39l1.79 2.86 -3.54 0 -2.12 -3.2c-0.77,-1.14 -1.29,-1.86 -1.57,-2.15 -0.28,-0.3 -0.58,-0.5 -0.89,-0.61 -0.32,-0.11 -0.82,-0.17 -1.5,-0.17l-0.61 0 0 6.13 -2.97 0zm2.97 -8.46l2.2 0c1.42,0 2.3,-0.07 2.66,-0.18 0.35,-0.12 0.63,-0.33 0.83,-0.63 0.2,-0.29 0.3,-0.66 0.3,-1.1 0,-0.5 -0.13,-0.89 -0.4,-1.2 -0.26,-0.3 -0.63,-0.49 -1.11,-0.57 -0.24,-0.04 -0.96,-0.05 -2.16,-0.05l-2.32 0 0 3.73zm11.79 8.46l0 -14.67 4.46 0 2.63 10.01 2.6 -10.01 4.46 0 0 14.67 -2.75 0 -0.01 -11.55 -2.89 11.55 -2.86 0 -2.88 -11.55 -0.01 11.55 -2.75 0zm30.34 0l-3.2 0 -1.27 -3.34 -5.88 0 -1.22 3.34 -3.15 0 5.7 -14.67 3.14 0 5.88 14.67zm-5.43 -5.82l-2.04 -5.43 -1.98 5.43 4.02 0z"/>
  <path class="fil10" d="M440.99 405.59l0 -14.68 4.75 0c1.8,0 2.98,0.07 3.52,0.22 0.84,0.22 1.55,0.7 2.11,1.44 0.57,0.73 0.85,1.69 0.85,2.86 0,0.9 -0.16,1.65 -0.48,2.27 -0.33,0.61 -0.75,1.1 -1.25,1.45 -0.5,0.35 -1.01,0.58 -1.53,0.69 -0.71,0.14 -1.73,0.21 -3.07,0.21l-1.93 0 0 5.54 -2.97 0zm2.97 -12.2l0 4.18 1.62 0c1.16,0 1.94,-0.08 2.33,-0.23 0.4,-0.15 0.7,-0.39 0.93,-0.72 0.22,-0.33 0.33,-0.71 0.33,-1.15 0,-0.54 -0.16,-0.98 -0.47,-1.32 -0.31,-0.35 -0.7,-0.57 -1.19,-0.66 -0.35,-0.06 -1.06,-0.1 -2.12,-0.1l-1.43 0zm10.6 12.2l0 -14.68 2.97 0 0 14.68 -2.97 0zm4.51 0l0 -2.67 7.73 -9.53 -6.85 0 0 -2.48 10.74 0 0 2.3 -8.03 9.9 8.34 0 0 2.48 -11.93 0zm12.52 0l0 -2.67 7.73 -9.53 -6.85 0 0 -2.48 10.74 0 0 2.3 -8.03 9.9 8.34 0 0 2.48 -11.93 0zm27.03 0l-3.2 0 -1.27 -3.34 -5.88 0 -1.22 3.34 -3.15 0 5.7 -14.68 3.14 0 5.88 14.68zm-5.43 -5.82l-2.04 -5.44 -1.98 5.44 4.02 0zm7.01 5.82l0 -14.68 6.25 0c1.56,0 2.7,0.13 3.42,0.4 0.71,0.26 1.28,0.73 1.7,1.4 0.43,0.68 0.65,1.45 0.65,2.31 0,1.11 -0.33,2.02 -0.97,2.73 -0.65,0.72 -1.61,1.17 -2.9,1.36 0.64,0.37 1.17,0.78 1.58,1.23 0.42,0.45 0.98,1.24 1.68,2.38l1.8 2.87 -3.55 0 -2.12 -3.21c-0.76,-1.13 -1.29,-1.85 -1.57,-2.15 -0.28,-0.29 -0.58,-0.5 -0.89,-0.61 -0.32,-0.11 -0.82,-0.16 -1.5,-0.16l-0.6 0 0 6.13 -2.98 0zm2.98 -8.47l2.19 0c1.42,0 2.31,-0.06 2.66,-0.18 0.35,-0.12 0.63,-0.33 0.83,-0.62 0.2,-0.3 0.3,-0.66 0.3,-1.11 0,-0.49 -0.13,-0.89 -0.39,-1.19 -0.27,-0.31 -0.64,-0.5 -1.12,-0.58 -0.24,-0.03 -0.96,-0.05 -2.16,-0.05l-2.31 0 0 3.73zm11.21 1.22c0,-1.5 0.23,-2.76 0.67,-3.77 0.34,-0.75 0.79,-1.42 1.37,-2.02 0.58,-0.59 1.21,-1.03 1.9,-1.33 0.91,-0.38 1.97,-0.58 3.16,-0.58 2.17,0 3.9,0.68 5.2,2.02 1.3,1.35 1.95,3.21 1.95,5.61 0,2.37 -0.65,4.23 -1.94,5.57 -1.28,1.34 -3.01,2.01 -5.17,2.01 -2.18,0 -3.92,-0.66 -5.21,-2 -1.28,-1.33 -1.93,-3.17 -1.93,-5.51zm3.06 -0.1c0,1.66 0.38,2.92 1.15,3.78 0.77,0.86 1.75,1.29 2.93,1.29 1.18,0 2.15,-0.43 2.92,-1.28 0.75,-0.85 1.13,-2.13 1.13,-3.83 0,-1.69 -0.37,-2.94 -1.11,-3.77 -0.73,-0.83 -1.72,-1.24 -2.94,-1.24 -1.22,0 -2.21,0.42 -2.96,1.25 -0.75,0.84 -1.12,2.11 -1.12,3.8z"/>
  <path class="fil10" d="M616.16 206.63l0 -14.67 4.75 0c1.8,0 2.97,0.07 3.52,0.21 0.84,0.23 1.54,0.7 2.11,1.44 0.57,0.74 0.85,1.69 0.85,2.86 0,0.9 -0.16,1.66 -0.49,2.27 -0.32,0.62 -0.74,1.1 -1.24,1.45 -0.5,0.35 -1.01,0.58 -1.53,0.7 -0.71,0.13 -1.73,0.21 -3.07,0.21l-1.93 0 0 5.53 -2.97 0zm2.97 -12.19l0 4.18 1.62 0c1.16,0 1.94,-0.08 2.33,-0.23 0.39,-0.16 0.7,-0.4 0.92,-0.73 0.23,-0.33 0.34,-0.71 0.34,-1.14 0,-0.54 -0.16,-0.98 -0.47,-1.33 -0.31,-0.35 -0.71,-0.57 -1.19,-0.66 -0.35,-0.06 -1.06,-0.09 -2.12,-0.09l-1.43 0zm69.6 0.26l-1.77 0 -2.76 -2.99 3.13 0 1.4 2.99zm-45.68 11.93l-3.2 0 -1.26 -3.34 -5.89 0 -1.22 3.34 -3.14 0 5.69 -14.67 3.14 0 5.88 14.67zm-5.43 -5.82l-2.04 -5.43 -1.98 5.43 4.02 0zm7.02 5.82l0 -14.67 4.75 0c1.8,0 2.97,0.07 3.52,0.21 0.84,0.23 1.54,0.7 2.11,1.44 0.56,0.74 0.85,1.69 0.85,2.86 0,0.9 -0.17,1.66 -0.49,2.27 -0.33,0.62 -0.74,1.1 -1.24,1.45 -0.51,0.35 -1.02,0.58 -1.54,0.7 -0.71,0.13 -1.73,0.21 -3.07,0.21l-1.92 0 0 5.53 -2.97 0zm2.97 -12.19l0 4.18 1.61 0c1.17,0 1.94,-0.08 2.34,-0.23 0.39,-0.16 0.7,-0.4 0.92,-0.73 0.22,-0.33 0.33,-0.71 0.33,-1.14 0,-0.54 -0.15,-0.98 -0.46,-1.33 -0.32,-0.35 -0.71,-0.57 -1.19,-0.66 -0.35,-0.06 -1.06,-0.09 -2.13,-0.09l-1.42 0zm10.7 12.19l0 -14.67 4.75 0c1.8,0 2.97,0.07 3.52,0.21 0.84,0.23 1.54,0.7 2.11,1.44 0.57,0.74 0.85,1.69 0.85,2.86 0,0.9 -0.16,1.66 -0.49,2.27 -0.33,0.62 -0.74,1.1 -1.24,1.45 -0.5,0.35 -1.02,0.58 -1.54,0.7 -0.7,0.13 -1.72,0.21 -3.06,0.21l-1.93 0 0 5.53 -2.97 0zm2.97 -12.19l0 4.18 1.62 0c1.16,0 1.94,-0.08 2.33,-0.23 0.39,-0.16 0.7,-0.4 0.92,-0.73 0.22,-0.33 0.34,-0.71 0.34,-1.14 0,-0.54 -0.16,-0.98 -0.47,-1.33 -0.32,-0.35 -0.71,-0.57 -1.19,-0.66 -0.35,-0.06 -1.06,-0.09 -2.13,-0.09l-1.42 0zm22.4 12.19l-3.2 0 -1.27 -3.34 -5.88 0 -1.22 3.34 -3.15 0 5.7 -14.67 3.14 0 5.88 14.67zm-5.43 -5.82l-2.04 -5.43 -1.98 5.43 4.02 0zm13.06 1.07l2.89 -0.29c0.17,0.97 0.52,1.67 1.05,2.13 0.53,0.45 1.24,0.68 2.14,0.68 0.95,0 1.67,-0.2 2.15,-0.61 0.48,-0.4 0.73,-0.87 0.73,-1.41 0,-0.35 -0.11,-0.64 -0.31,-0.89 -0.2,-0.24 -0.55,-0.45 -1.06,-0.63 -0.35,-0.12 -1.13,-0.34 -2.36,-0.64 -1.58,-0.4 -2.69,-0.89 -3.33,-1.46 -0.9,-0.81 -1.35,-1.8 -1.35,-2.97 0,-0.74 0.21,-1.45 0.63,-2.1 0.43,-0.65 1.04,-1.15 1.83,-1.49 0.8,-0.34 1.75,-0.51 2.88,-0.51 1.84,0 3.22,0.4 4.15,1.22 0.93,0.82 1.41,1.9 1.46,3.27l-2.97 0.1c-0.13,-0.76 -0.4,-1.3 -0.81,-1.63 -0.42,-0.33 -1.04,-0.5 -1.87,-0.5 -0.85,0 -1.52,0.18 -2,0.53 -0.31,0.23 -0.47,0.53 -0.47,0.92 0,0.34 0.15,0.64 0.44,0.89 0.37,0.32 1.28,0.64 2.72,0.99 1.44,0.33 2.5,0.69 3.19,1.05 0.69,0.37 1.23,0.86 1.61,1.49 0.39,0.64 0.59,1.42 0.59,2.34 0,0.84 -0.23,1.63 -0.7,2.37 -0.47,0.73 -1.13,1.28 -1.98,1.63 -0.86,0.36 -1.92,0.54 -3.2,0.54 -1.85,0 -3.28,-0.43 -4.27,-1.29 -0.99,-0.85 -1.59,-2.1 -1.78,-3.73zm-59.96 23.81l0 -14.68 4.76 0c1.8,0 2.97,0.07 3.51,0.22 0.84,0.22 1.55,0.7 2.12,1.44 0.56,0.73 0.85,1.69 0.85,2.86 0,0.9 -0.17,1.65 -0.49,2.27 -0.33,0.61 -0.74,1.09 -1.25,1.45 -0.5,0.34 -1.01,0.58 -1.53,0.69 -0.71,0.14 -1.73,0.21 -3.07,0.21l-1.92 0 0 5.54 -2.98 0zm2.98 -12.2l0 4.18 1.61 0c1.17,0 1.94,-0.08 2.33,-0.23 0.4,-0.16 0.71,-0.39 0.93,-0.73 0.22,-0.32 0.33,-0.7 0.33,-1.14 0,-0.54 -0.15,-0.98 -0.47,-1.33 -0.31,-0.34 -0.7,-0.56 -1.18,-0.65 -0.36,-0.07 -1.06,-0.1 -2.13,-0.1l-1.42 0zm10.59 12.2l0 -14.68 2.98 0 0 14.68 -2.98 0zm4.51 0l0 -2.67 7.73 -9.53 -6.85 0 0 -2.48 10.74 0 0 2.29 -8.03 9.9 8.34 0 0 2.49 -11.93 0zm12.52 0l0 -2.67 7.74 -9.53 -6.86 0 0 -2.48 10.74 0 0 2.29 -8.03 9.9 8.34 0 0 2.49 -11.93 0zm27.03 0l-3.2 0 -1.26 -3.35 -5.89 0 -1.22 3.35 -3.14 0 5.7 -14.68 3.13 0 5.88 14.68zm-5.43 -5.83l-2.04 -5.43 -1.98 5.43 4.02 0z"/>
  <path class="fil10" d="M503.34 558.61l0 -2.16 6.29 -7.75 -5.58 0 0 -2.02 8.74 0 0 1.87 -6.54 8.05 6.79 0 0 2.01 -9.7 0zm61.27 -9.7l-1.44 0 -2.25 -2.43 2.55 0 1.14 2.43zm-50.04 9.7l0 -11.93 2.41 0 0 4.7 4.7 0 0 -4.7 2.42 0 0 11.93 -2.42 0 0 -5.22 -4.7 0 0 5.22 -2.41 0zm12.03 0l0 -11.93 8.84 0 0 2.02 -6.42 0 0 2.65 5.97 0 0 2.01 -5.97 0 0 3.24 6.65 0 0 2.01 -9.07 0zm11.15 0l0 -11.93 2.42 0 0 5.28 4.87 -5.28 3.24 0 -4.51 4.65 4.74 7.28 -3.12 0 -3.28 -5.6 -1.94 1.99 0 3.61 -2.42 0zm22.75 0l-2.6 0 -1.03 -2.71 -4.79 0 -0.99 2.71 -2.55 0 4.63 -11.93 2.55 0 4.78 11.93zm-4.41 -4.73l-1.66 -4.42 -1.61 4.42 3.27 0zm10.62 0.86l2.35 -0.23c0.14,0.79 0.42,1.36 0.85,1.73 0.43,0.37 1.01,0.56 1.74,0.56 0.77,0 1.36,-0.17 1.75,-0.5 0.39,-0.32 0.59,-0.71 0.59,-1.15 0,-0.28 -0.08,-0.52 -0.25,-0.72 -0.16,-0.2 -0.45,-0.37 -0.86,-0.51 -0.28,-0.1 -0.92,-0.27 -1.92,-0.53 -1.29,-0.32 -2.19,-0.71 -2.71,-1.18 -0.73,-0.66 -1.09,-1.46 -1.09,-2.41 0,-0.61 0.17,-1.18 0.51,-1.71 0.34,-0.53 0.84,-0.93 1.49,-1.21 0.64,-0.28 1.42,-0.42 2.34,-0.42 1.49,0 2.61,0.33 3.37,1 0.75,0.66 1.15,1.54 1.19,2.65l-2.42 0.09c-0.1,-0.62 -0.32,-1.06 -0.66,-1.33 -0.34,-0.27 -0.84,-0.41 -1.51,-0.41 -0.7,0 -1.24,0.15 -1.63,0.43 -0.26,0.19 -0.38,0.44 -0.38,0.75 0,0.28 0.11,0.52 0.35,0.72 0.31,0.26 1.04,0.53 2.21,0.81 1.17,0.27 2.04,0.56 2.59,0.86 0.57,0.29 1,0.7 1.32,1.21 0.32,0.51 0.48,1.15 0.48,1.9 0,0.68 -0.19,1.32 -0.57,1.92 -0.38,0.6 -0.92,1.04 -1.62,1.33 -0.69,0.29 -1.56,0.44 -2.59,0.44 -1.51,0 -2.67,-0.35 -3.48,-1.05 -0.81,-0.69 -1.29,-1.7 -1.44,-3.04zm-39.26 19.36l0 -11.93 2.41 0 0 11.93 -2.41 0zm12.34 -4.4l2.34 0.72c-0.36,1.32 -0.96,2.29 -1.79,2.93 -0.84,0.64 -1.89,0.95 -3.17,0.95 -1.59,0 -2.89,-0.54 -3.91,-1.62 -1.02,-1.08 -1.53,-2.56 -1.53,-4.44 0,-1.99 0.51,-3.54 1.54,-4.64 1.02,-1.1 2.37,-1.65 4.04,-1.65 1.46,0 2.65,0.44 3.56,1.3 0.54,0.51 0.95,1.25 1.22,2.2l-2.38 0.57c-0.14,-0.62 -0.44,-1.1 -0.88,-1.46 -0.45,-0.36 -1,-0.54 -1.64,-0.54 -0.88,0 -1.6,0.32 -2.15,0.95 -0.55,0.64 -0.83,1.67 -0.83,3.09 0,1.5 0.27,2.58 0.81,3.22 0.55,0.64 1.25,0.96 2.12,0.96 0.65,0 1.2,-0.2 1.66,-0.61 0.46,-0.41 0.79,-1.05 0.99,-1.93zm4.41 4.4l0 -11.93 8.83 0 0 2.02 -6.42 0 0 2.65 5.97 0 0 2.01 -5.97 0 0 3.24 6.65 0 0 2.01 -9.06 0z"/>
  <path class="fil10" d="M757.54 201.94l0 -14.67 6.24 0c1.57,0 2.71,0.13 3.42,0.39 0.72,0.27 1.29,0.73 1.71,1.41 0.43,0.67 0.64,1.44 0.64,2.31 0,1.1 -0.32,2.01 -0.96,2.73 -0.65,0.72 -1.61,1.17 -2.9,1.36 0.64,0.37 1.17,0.78 1.58,1.23 0.42,0.44 0.98,1.24 1.68,2.38l1.79 2.86 -3.54 0 -2.12 -3.2c-0.77,-1.14 -1.29,-1.86 -1.57,-2.15 -0.28,-0.3 -0.58,-0.5 -0.89,-0.61 -0.32,-0.11 -0.82,-0.17 -1.5,-0.17l-0.61 0 0 6.13 -2.97 0zm2.97 -8.46l2.2 0c1.42,0 2.3,-0.06 2.66,-0.18 0.35,-0.12 0.63,-0.33 0.83,-0.62 0.2,-0.3 0.3,-0.67 0.3,-1.11 0,-0.49 -0.13,-0.89 -0.4,-1.2 -0.26,-0.3 -0.63,-0.49 -1.11,-0.57 -0.24,-0.04 -0.96,-0.05 -2.16,-0.05l-2.32 0 0 3.73zm11.84 8.46l0 -14.67 10.86 0 0 2.48 -7.89 0 0 3.26 7.34 0 0 2.48 -7.34 0 0 3.97 8.18 0 0 2.48 -11.15 0zm13.67 -14.67l5.4 0c1.22,0 2.15,0.09 2.79,0.28 0.86,0.25 1.6,0.7 2.21,1.35 0.61,0.65 1.08,1.44 1.4,2.38 0.32,0.93 0.48,2.09 0.48,3.47 0,1.2 -0.15,2.24 -0.45,3.12 -0.37,1.07 -0.89,1.93 -1.57,2.59 -0.52,0.5 -1.21,0.89 -2.08,1.17 -0.65,0.21 -1.52,0.31 -2.62,0.31l-5.56 0 0 -14.67zm2.97 2.48l0 9.71 2.2 0c0.83,0 1.42,-0.04 1.79,-0.14 0.48,-0.12 0.87,-0.32 1.19,-0.61 0.32,-0.28 0.57,-0.76 0.77,-1.41 0.2,-0.66 0.3,-1.56 0.3,-2.69 0,-1.14 -0.1,-2 -0.3,-2.61 -0.2,-0.61 -0.48,-1.08 -0.84,-1.42 -0.35,-0.34 -0.81,-0.57 -1.36,-0.69 -0.41,-0.1 -1.22,-0.14 -2.42,-0.14l-1.33 0zm13.85 12.19l-3.45 -14.67 3.05 0 2.18 10.08 2.68 -10.08 3.53 0 2.57 10.25 2.23 -10.25 2.98 0 -3.53 14.67 -3.18 0 -2.89 -10.97 -2.91 10.97 -3.26 0zm29.42 0l-3.2 0 -1.27 -3.34 -5.89 0 -1.22 3.34 -3.14 0 5.7 -14.67 3.14 0 5.88 14.67zm-5.43 -5.82l-2.04 -5.43 -1.99 5.43 4.03 0zm8.98 5.82l0 -6.17 -5.38 -8.5 3.47 0 3.47 5.81 3.38 -5.81 3.41 0 -5.38 8.52 0 6.15 -2.97 0z"/>
  <path class="fil10" d="M892.46 191.43l5.87 0c1.17,0 2.03,0.05 2.6,0.14 0.57,0.1 1.08,0.3 1.53,0.61 0.46,0.31 0.83,0.71 1.13,1.22 0.3,0.51 0.45,1.09 0.45,1.72 0,0.68 -0.18,1.31 -0.55,1.88 -0.37,0.58 -0.87,1 -1.5,1.29 0.89,0.26 1.57,0.71 2.05,1.34 0.48,0.62 0.72,1.36 0.72,2.21 0,0.67 -0.15,1.32 -0.46,1.95 -0.31,0.64 -0.74,1.14 -1.28,1.52 -0.53,0.38 -1.2,0.61 -1.99,0.7 -0.49,0.05 -1.68,0.08 -3.57,0.1l-5 0 0 -14.68zm2.97 2.44l0 3.38 1.94 0c1.16,0 1.87,-0.02 2.15,-0.05 0.51,-0.06 0.91,-0.23 1.2,-0.52 0.29,-0.29 0.43,-0.67 0.43,-1.14 0,-0.46 -0.12,-0.82 -0.37,-1.11 -0.25,-0.28 -0.62,-0.45 -1.12,-0.51 -0.29,-0.03 -1.13,-0.05 -2.52,-0.05l-1.71 0zm0 5.82l0 3.94 2.75 0c1.07,0 1.75,-0.03 2.03,-0.09 0.44,-0.08 0.8,-0.28 1.08,-0.59 0.28,-0.31 0.42,-0.73 0.42,-1.25 0,-0.44 -0.11,-0.82 -0.32,-1.12 -0.22,-0.31 -0.53,-0.54 -0.93,-0.68 -0.4,-0.14 -1.28,-0.21 -2.63,-0.21l-2.4 0zm11.83 -8.26l2.98 0 0 7.95c0,1.27 0.03,2.08 0.11,2.46 0.12,0.6 0.42,1.08 0.89,1.45 0.48,0.36 1.12,0.54 1.94,0.54 0.83,0 1.46,-0.17 1.88,-0.51 0.43,-0.35 0.68,-0.77 0.77,-1.27 0.08,-0.5 0.13,-1.33 0.13,-2.5l0 -8.12 2.97 0 0 7.72c0,1.76 -0.08,3.01 -0.24,3.74 -0.16,0.72 -0.45,1.34 -0.89,1.84 -0.42,0.5 -1,0.9 -1.71,1.2 -0.73,0.29 -1.66,0.44 -2.82,0.44 -1.4,0 -2.46,-0.16 -3.18,-0.48 -0.72,-0.33 -1.29,-0.75 -1.71,-1.27 -0.42,-0.51 -0.69,-1.05 -0.82,-1.63 -0.2,-0.84 -0.3,-2.08 -0.3,-3.72l0 -7.84zm14.81 14.68l0 -14.68 6.24 0c1.57,0 2.71,0.13 3.42,0.4 0.71,0.26 1.28,0.73 1.71,1.4 0.42,0.68 0.64,1.45 0.64,2.31 0,1.11 -0.32,2.02 -0.97,2.73 -0.64,0.72 -1.61,1.17 -2.89,1.36 0.64,0.37 1.16,0.78 1.58,1.23 0.41,0.45 0.97,1.24 1.68,2.38l1.79 2.87 -3.54 0 -2.13 -3.21c-0.76,-1.13 -1.28,-1.85 -1.57,-2.15 -0.28,-0.29 -0.58,-0.5 -0.89,-0.61 -0.32,-0.11 -0.82,-0.16 -1.5,-0.16l-0.6 0 0 6.13 -2.97 0zm2.97 -8.47l2.19 0c1.42,0 2.31,-0.06 2.66,-0.18 0.36,-0.12 0.64,-0.33 0.84,-0.62 0.2,-0.3 0.3,-0.66 0.3,-1.11 0,-0.49 -0.14,-0.89 -0.4,-1.19 -0.26,-0.31 -0.64,-0.5 -1.11,-0.58 -0.25,-0.03 -0.97,-0.05 -2.17,-0.05l-2.31 0 0 3.73zm18.66 3.08l0 -2.48 6.37 0 0 5.85c-0.62,0.61 -1.52,1.14 -2.69,1.6 -1.18,0.45 -2.37,0.68 -3.58,0.68 -1.54,0 -2.87,-0.32 -4.01,-0.96 -1.14,-0.65 -2,-1.58 -2.57,-2.77 -0.58,-1.2 -0.86,-2.51 -0.86,-3.92 0,-1.53 0.32,-2.89 0.96,-4.08 0.64,-1.19 1.58,-2.11 2.81,-2.75 0.94,-0.48 2.11,-0.73 3.51,-0.73 1.82,0 3.25,0.39 4.27,1.15 1.02,0.77 1.68,1.83 1.98,3.18l-2.96 0.55c-0.2,-0.72 -0.59,-1.29 -1.16,-1.71 -0.57,-0.42 -1.28,-0.62 -2.13,-0.62 -1.29,0 -2.32,0.41 -3.08,1.23 -0.77,0.82 -1.15,2.04 -1.15,3.66 0,1.74 0.39,3.05 1.16,3.92 0.78,0.87 1.79,1.31 3.04,1.31 0.62,0 1.24,-0.12 1.86,-0.36 0.63,-0.25 1.16,-0.54 1.61,-0.89l0 -1.86 -3.38 0zm9.11 5.39l0 -14.68 10.87 0 0 2.48 -7.89 0 0 3.26 7.33 0 0 2.48 -7.33 0 0 3.98 8.17 0 0 2.48 -11.15 0zm13.68 0l0 -14.68 6.24 0c1.57,0 2.71,0.13 3.42,0.4 0.71,0.26 1.28,0.73 1.71,1.4 0.42,0.68 0.64,1.45 0.64,2.31 0,1.11 -0.32,2.02 -0.97,2.73 -0.64,0.72 -1.61,1.17 -2.89,1.36 0.64,0.37 1.16,0.78 1.58,1.23 0.41,0.45 0.97,1.24 1.68,2.38l1.79 2.87 -3.55 0 -2.12 -3.21c-0.76,-1.13 -1.29,-1.85 -1.57,-2.15 -0.28,-0.29 -0.58,-0.5 -0.89,-0.61 -0.32,-0.11 -0.82,-0.16 -1.5,-0.16l-0.6 0 0 6.13 -2.97 0zm2.97 -8.47l2.19 0c1.42,0 2.31,-0.06 2.66,-0.18 0.36,-0.12 0.64,-0.33 0.83,-0.62 0.2,-0.3 0.3,-0.66 0.3,-1.11 0,-0.49 -0.13,-0.89 -0.39,-1.19 -0.26,-0.31 -0.64,-0.5 -1.12,-0.58 -0.24,-0.03 -0.96,-0.05 -2.16,-0.05l-2.31 0 0 3.73zm-53.77 27.52l0 -12.2 -4.34 0 0 -2.48 11.64 0 0 2.48 -4.32 0 0 12.2 -2.98 0zm9.12 0l0 -14.68 2.98 0 0 14.68 -2.98 0zm5.76 0l0 -14.68 4.45 0 2.63 10.01 2.6 -10.01 4.46 0 0 14.68 -2.74 0 -0.01 -11.55 -2.9 11.55 -2.85 0 -2.88 -11.55 -0.01 11.55 -2.75 0zm17.12 0l0 -14.68 10.86 0 0 2.48 -7.89 0 0 3.26 7.34 0 0 2.48 -7.34 0 0 3.98 8.18 0 0 2.48 -11.15 0z"/>
  <g id="_2096424372640">
   <polygon class="fil5 str0" points="571.91,628.44 504.57,628.44 504.57,695.79 571.91,695.79 "/>
   <g>
    <polygon class="fil2" points="520.73,649.7 528,636.59 535.27,649.7 "/>
    <polygon class="fil2" points="541.22,636.59 548.49,649.7 555.76,636.59 "/>
    <path class="fil2" d="M527.62 653.38c1.73,0 3.13,1.4 3.13,3.13 0,1.73 -1.4,3.13 -3.13,3.13 -1.73,0 -3.13,-1.4 -3.13,-3.13 0,-1.73 1.4,-3.13 3.13,-3.13z"/>
    <path class="fil2" d="M523.56 660.52l8.17 0c1.48,0 2.7,1.21 2.7,2.7l0 1.39 0 4.82 0 3.52c0,0.66 -0.54,1.2 -1.21,1.2l0 0c-0.66,0 -1.2,-0.54 -1.2,-1.2l0 -0.83 -0.02 0 0 -7.12c0,-0.24 -0.2,-0.44 -0.44,-0.44l0 0c-0.24,0 -0.44,0.2 -0.44,0.44l0 5.31 0 1.83 0 0.08 0 3.43 0 10.42c0,0.86 -0.7,1.56 -1.56,1.56l0 0c-0.86,0 -1.57,-0.7 -1.57,-1.56l0 -6.96 0 -5.4c0,-0.24 -0.19,-0.44 -0.44,-0.44l0 0c-0.24,0 -0.44,0.2 -0.44,0.44l0 5.38 0 7.07c0,0.81 -0.66,1.47 -1.47,1.47l0 0c-0.81,0 -1.48,-0.66 -1.48,-1.47l0 -10.51 0 -3.43 0 -0.08 0 -1.92 0 -5.22c0,-0.24 -0.2,-0.44 -0.44,-0.44l0 0c-0.24,0 -0.44,0.2 -0.44,0.44l0 7.12 -0.01 0 0 0.83c0,0.66 -0.55,1.2 -1.21,1.2l0 0c-0.66,0 -1.21,-0.54 -1.21,-1.2l0 -3.52 0 -4.82 0 -1.39c0,-1.49 1.22,-2.7 2.71,-2.7z"/>
    <path class="fil2" d="M548.51 653.38c1.73,0 3.13,1.4 3.13,3.13 0,1.73 -1.4,3.13 -3.13,3.13 -1.72,0 -3.13,-1.4 -3.13,-3.13 0,-1.73 1.41,-3.13 3.13,-3.13z"/>
    <path class="fil2" d="M544.45 660.52l8.17 0c1.48,0 2.7,1.21 2.7,2.7l0 1.39 0 4.82 0 3.52c0,0.66 -0.54,1.2 -1.2,1.2l-0.01 0c-0.66,0 -1.2,-0.54 -1.2,-1.2l0 -0.83 -0.02 0 0 -7.12c0,-0.24 -0.2,-0.44 -0.44,-0.44l0 0c-0.24,0 -0.44,0.2 -0.44,0.44l0 5.31 0 1.83 0 0.08 0 3.43 0 10.42c0,0.86 -0.7,1.56 -1.56,1.56l0 0c-0.86,0 -1.57,-0.7 -1.57,-1.56l0 -6.96 0 -5.4c0,-0.24 -0.19,-0.44 -0.43,-0.44l0 0c-0.25,0 -0.44,0.2 -0.44,0.44l0 5.38 0 7.07c0,0.81 -0.67,1.47 -1.48,1.47l0 0c-0.81,0 -1.48,-0.66 -1.48,-1.47l0 -10.51 0 -3.43 0 -0.08 0 -1.92 0 -5.22c0,-0.24 -0.2,-0.44 -0.44,-0.44l0 0c-0.24,0 -0.44,0.2 -0.44,0.44l0 7.12 -0.01 0 0 0.83c0,0.66 -0.54,1.2 -1.21,1.2l0 0c-0.66,0 -1.21,-0.54 -1.21,-1.2l0 -3.52 0 -4.82 0 -1.39c0,-1.49 1.22,-2.7 2.71,-2.7z"/>
   </g>
  </g>
  <g id="_2096424371040">
   <path class="fil2" d="M1141.26 732.37c2.38,0 4.31,1.93 4.31,4.31 0,2.39 -1.93,4.32 -4.31,4.32 -2.39,0 -4.32,-1.93 -4.32,-4.32 0,-2.38 1.93,-4.31 4.32,-4.31z"/>
   <path class="fil2" d="M1135.65 742.21l11.27 0c2.05,0 3.73,1.68 3.73,3.73l0 1.91 0 6.66 0 4.85c0,0.91 -0.75,1.66 -1.67,1.66l0 0c-0.91,0 -1.66,-0.75 -1.66,-1.66l0 -1.15 -0.02 0.01 0 -9.82c0,-0.33 -0.28,-0.61 -0.61,-0.61l0 0c-0.33,0 -0.6,0.28 -0.6,0.61l0 7.31 0 2.53 0 0.12 0 4.72 0 14.37c0,1.19 -0.98,2.16 -2.16,2.16l0 0c-1.19,0 -2.16,-0.97 -2.16,-2.16l0 -9.6 0 -7.44c0,-0.33 -0.27,-0.6 -0.61,-0.6l0 0c-0.33,0 -0.6,0.27 -0.6,0.6l0 7.41 0 9.75c0,1.12 -0.92,2.04 -2.04,2.04l0 0c-1.12,0 -2.04,-0.92 -2.04,-2.04l0 -14.49 0 -4.72 0 -0.12 0 -2.65 0 -7.19c0,-0.33 -0.27,-0.61 -0.6,-0.61l0 0c-0.34,0 -0.61,0.28 -0.61,0.61l0 9.82 -0.02 -0.01 0 1.15c0,0.91 -0.75,1.66 -1.66,1.66l0 0c-0.92,0 -1.67,-0.75 -1.67,-1.66l0 -4.85 0 -6.66 0 -1.91c0,-2.05 1.68,-3.73 3.73,-3.73z"/>
  </g>
  <g id="_2096424371936">
   <path class="fil2" d="M1141.38 665.02c2.38,0 4.31,1.93 4.31,4.32 0,2.38 -1.93,4.31 -4.31,4.31 -2.39,0 -4.32,-1.93 -4.32,-4.31 0,-2.39 1.93,-4.32 4.32,-4.32z"/>
   <path class="fil2" d="M1141.28 674.86c1.98,0 3.96,0 5.94,0 1.24,0 2.29,0.85 2.59,2l0 0 0.86 3.32 0.16 0.63 1.13 4.4 0.16 0.62 1.04 4.08c0.23,0.88 -0.31,1.79 -1.19,2.02l0 0c-0.89,0.23 -1.8,-0.31 -2.03,-1.2 -0.35,-1.35 -0.71,-2.69 -1.07,-4.06l-1.45 -5.65 -0.01 -0.04c-0.04,-0.3 -0.29,-0.53 -0.6,-0.53l0 0c-0.4,0 -0.6,0.31 -0.6,0.65 1.39,5.38 2.79,10.76 4.18,16.15 -1.39,0 -2.79,0 -4.18,0l0 12.85c0,1.19 -0.98,2.16 -2.16,2.16l0 0c-1.19,0 -2.16,-0.97 -2.16,-2.16 0,-4.27 0,-8.54 0,-12.82l0 -0.03 0 0c-0.02,-0.32 -0.29,-0.57 -0.61,-0.57 -0.32,0 -0.58,0.25 -0.6,0.57l0 0 0 0.03c0,4.28 0,8.55 0,12.82 0,1.19 -0.97,2.16 -2.16,2.16l0 0c-1.19,0 -2.16,-0.97 -2.16,-2.16l0 -12.85c-1.39,0 -2.79,0 -4.18,0 1.37,-5.31 2.75,-10.61 4.12,-15.91 0.03,-0.1 0.07,-0.21 0.06,-0.31 -0.01,-0.12 -0.05,-0.23 -0.11,-0.32 -0.18,-0.3 -0.6,-0.34 -0.87,-0.13 -0.12,0.09 -0.2,0.23 -0.22,0.4l-0.01 0.04 -1.45 5.65c-0.36,1.37 -0.72,2.71 -1.07,4.06 -0.23,0.89 -1.14,1.43 -2.03,1.2l0 0c-0.89,-0.23 -1.42,-1.14 -1.2,-2.02l1.05 -4.08 0.16 -0.62 1.13 -4.4 0.16 -0.63 0.85 -3.32 0.01 0c0.29,-1.15 1.34,-2 2.59,-2 1.98,0 3.95,0 5.93,0z"/>
  </g>
  <g id="_2096424366592">
   <path class="fil11" d="M806.88 940.56l-16.02 16.02 -6.42 0c-0.58,0 -1.14,0.12 -1.65,0.33 -0.54,0.22 -1.02,0.54 -1.42,0.95 -0.4,0.4 -0.73,0.88 -0.95,1.41 -0.21,0.51 -0.33,1.07 -0.33,1.66 0,0.59 0.12,1.15 0.33,1.66 0.22,0.53 0.55,1.01 0.95,1.41 0.4,0.41 0.88,0.73 1.42,0.95 0.51,0.21 1.07,0.33 1.65,0.33l8.24 0c0.3,0 0.59,-0.03 0.87,-0.09 0.29,-0.05 0.57,-0.14 0.84,-0.26 0.27,-0.12 0.53,-0.26 0.77,-0.43 0.24,-0.17 0.46,-0.36 0.67,-0.58l0.62 -0.65 0.02 0.01 15.27 -15.26 6.42 0c1.19,0 2.28,-0.49 3.07,-1.28 0.79,-0.79 1.28,-1.88 1.28,-3.08 0,-1.19 -0.49,-2.28 -1.28,-3.07 -0.79,-0.79 -1.88,-1.28 -3.07,-1.28l-8.24 0c-0.29,0 -0.57,0.03 -0.84,0.08 -0.28,0.06 -0.54,0.14 -0.8,0.24 -0.26,0.11 -0.51,0.24 -0.74,0.4 -0.21,0.14 -0.41,0.29 -0.59,0.47l-0.07 0.06z"/>
   <path class="fil11" d="M793.88 956.76l0 -15.19c0,-1.69 1.38,-3.06 3.06,-3.06l0.01 0c1.68,0 3.06,1.37 3.06,3.06l0 15.19c0,1.69 -1.38,3.07 -3.06,3.07l-0.01 0c-1.68,0 -3.06,-1.38 -3.06,-3.07z"/>
   <path class="fil11" d="M796.94 931.03c1.7,0 3.07,1.37 3.07,3.07 0,1.69 -1.37,3.06 -3.07,3.06 -1.69,0 -3.07,-1.37 -3.07,-3.06 0,-1.7 1.38,-3.07 3.07,-3.07z"/>
   <g>
    <polygon class="fil11" points="782.19,911.68 790.95,895.9 799.71,911.68 "/>
    <polygon class="fil11" points="802.89,895.9 811.65,911.68 820.41,895.9 "/>
   </g>
   <path class="fil11" d="M826.11 920.47l-49.62 0c-0.45,0 -0.88,0.09 -1.27,0.25 -0.4,0.17 -0.77,0.42 -1.07,0.72 -0.31,0.31 -0.56,0.68 -0.73,1.08 -0.16,0.39 -0.25,0.82 -0.25,1.26l0 49.63c0,0.45 0.09,0.87 0.25,1.26 0.17,0.41 0.42,0.77 0.73,1.08 0.3,0.31 0.67,0.56 1.07,0.72 0.39,0.17 0.82,0.25 1.27,0.25l49.62 0c0.45,0 0.88,-0.08 1.27,-0.25 0.4,-0.16 0.77,-0.41 1.07,-0.72 0.31,-0.31 0.56,-0.67 0.73,-1.08 0.16,-0.39 0.25,-0.81 0.25,-1.26l0 -49.63c0,-0.44 -0.09,-0.87 -0.25,-1.26 -0.17,-0.4 -0.42,-0.77 -0.73,-1.08 -0.3,-0.3 -0.67,-0.55 -1.07,-0.72 -0.39,-0.16 -0.82,-0.25 -1.27,-0.25zm-48.56 3.51l48.42 0 0 49.23 -49.34 0 0 -49.23 0.92 0z"/>
  </g>
 </g>
</svg>
